<?xml version="1.0" encoding="utf-8"?>
<!-- Generator: Adobe Illustrator 22.0.1, SVG Export Plug-In . SVG Version: 6.00 Build 0)  -->
<svg version="1.1" id="레이어_1" xmlns="http://www.w3.org/2000/svg" xmlns:xlink="http://www.w3.org/1999/xlink" x="0px"
	 y="0px" viewBox="0 0 958 258" style="enable-background:new 0 0 958 258;" xml:space="preserve">
<style type="text/css">
	.st0{clip-path:url(#SVGID_2_);fill-rule:evenodd;clip-rule:evenodd;fill:#FFFFFF;}
	.st1{fill:none;stroke:#000000;stroke-width:2.28;stroke-miterlimit:10;}
	.st2{clip-path:url(#SVGID_4_);}
	.st3{font-family:'MalgunGothic';}
	.st4{font-size:18px;}
	.st5{clip-path:url(#SVGID_6_);}
	.st6{clip-path:url(#SVGID_8_);}
	.st7{clip-path:url(#SVGID_10_);}
	.st8{clip-path:url(#SVGID_12_);}
	.st9{clip-path:url(#SVGID_14_);}
	.st10{clip-path:url(#SVGID_16_);}
	.st11{font-size:18.024px;}
	.st12{clip-path:url(#SVGID_18_);}
	.st13{clip-path:url(#SVGID_20_);}
	.st14{clip-path:url(#SVGID_22_);}
	.st15{clip-path:url(#SVGID_24_);}
	.st16{clip-path:url(#SVGID_26_);}
	.st17{clip-path:url(#SVGID_28_);}
	.st18{clip-path:url(#SVGID_30_);}
	.st19{clip-path:url(#SVGID_32_);}
	.st20{clip-path:url(#SVGID_34_);}
	.st21{clip-path:url(#SVGID_36_);}
	.st22{clip-path:url(#SVGID_38_);}
	.st23{clip-path:url(#SVGID_40_);}
	.st24{clip-path:url(#SVGID_42_);}
	.st25{clip-path:url(#SVGID_44_);}
	.st26{clip-path:url(#SVGID_46_);}
	.st27{clip-path:url(#SVGID_48_);}
	.st28{clip-path:url(#SVGID_50_);}
	.st29{clip-path:url(#SVGID_52_);}
	.st30{clip-path:url(#SVGID_54_);}
	.st31{clip-path:url(#SVGID_56_);}
</style>
<g>
	<defs>
		<rect id="SVGID_1_" x="-2" y="-155" width="960" height="540"/>
	</defs>
	<clipPath id="SVGID_2_">
		<use xlink:href="#SVGID_1_"  style="overflow:visible;"/>
	</clipPath>
	<rect x="-2" y="-155" class="st0" width="960" height="540"/>
</g>
<rect x="39.5" y="41.4" class="st1" width="135.2" height="84.1"/>
<g>
	<defs>
		<rect id="SVGID_3_" x="-2" y="-155" width="960" height="540"/>
	</defs>
	<clipPath id="SVGID_4_">
		<use xlink:href="#SVGID_3_"  style="overflow:visible;"/>
	</clipPath>
	<g class="st2">
		<text transform="matrix(1 0 0 1 49.8159 90.23)" class="st3 st4">프로그램</text>
	</g>
</g>
<g>
	<defs>
		<rect id="SVGID_5_" x="-2" y="-155" width="960" height="540"/>
	</defs>
	<clipPath id="SVGID_6_">
		<use xlink:href="#SVGID_5_"  style="overflow:visible;"/>
	</clipPath>
	<g class="st5">
		<text transform="matrix(1 0 0 1 128.2002 90.23)" class="st3 st4">실행</text>
	</g>
</g>
<rect x="224.9" y="41.4" class="st1" width="135.4" height="84.1"/>
<g>
	<defs>
		<rect id="SVGID_7_" x="-2" y="-155" width="960" height="540"/>
	</defs>
	<clipPath id="SVGID_8_">
		<use xlink:href="#SVGID_7_"  style="overflow:visible;"/>
	</clipPath>
	<g class="st6">
		<text transform="matrix(1 0 0 1 235.3398 68.6299)" class="st3 st4">현재</text>
	</g>
</g>
<g>
	<defs>
		<rect id="SVGID_9_" x="-2" y="-155" width="960" height="540"/>
	</defs>
	<clipPath id="SVGID_10_">
		<use xlink:href="#SVGID_9_"  style="overflow:visible;"/>
	</clipPath>
	<g class="st7">
		<text transform="matrix(1 0 0 1 277.7002 68.6299)"><tspan x="0" y="0" class="st3 st4">프로그</tspan><tspan x="54.1" y="0" class="st3 st4">램</tspan></text>
	</g>
</g>
<g>
	<defs>
		<rect id="SVGID_11_" x="-2" y="-155" width="960" height="540"/>
	</defs>
	<clipPath id="SVGID_12_">
		<use xlink:href="#SVGID_11_"  style="overflow:visible;"/>
	</clipPath>
	<g class="st8">
		<text transform="matrix(1 0 0 1 262.3398 90.23)" class="st3 st4">중단</text>
	</g>
</g>
<g>
	<defs>
		<rect id="SVGID_13_" x="-2" y="-155" width="960" height="540"/>
	</defs>
	<clipPath id="SVGID_14_">
		<use xlink:href="#SVGID_13_"  style="overflow:visible;"/>
	</clipPath>
	<g class="st9">
		<text transform="matrix(1 0 0 1 304.7202 90.23)" class="st3 st4">및</text>
	</g>
</g>
<g>
	<defs>
		<rect id="SVGID_15_" x="-2" y="-155" width="960" height="540"/>
	</defs>
	<clipPath id="SVGID_16_">
		<use xlink:href="#SVGID_15_"  style="overflow:visible;"/>
	</clipPath>
	<g class="st10">
		<text transform="matrix(1 0 0 1 253.3398 111.8301)"><tspan x="0" y="0" class="st3 st11">상</tspan><tspan x="18" y="0" class="st3 st11">태</tspan></text>
	</g>
</g>
<g>
	<defs>
		<rect id="SVGID_17_" x="-2" y="-155" width="960" height="540"/>
	</defs>
	<clipPath id="SVGID_18_">
		<use xlink:href="#SVGID_17_"  style="overflow:visible;"/>
	</clipPath>
	<g class="st12">
		<text transform="matrix(1 0 0 1 295.7202 111.8301)"><tspan x="0" y="0" class="st3 st11">저</tspan><tspan x="18" y="0" class="st3 st11">장</tspan></text>
	</g>
</g>
<rect x="410.4" y="41.4" class="st1" width="135.4" height="84.1"/>
<g>
	<defs>
		<rect id="SVGID_19_" x="-2" y="-155" width="960" height="540"/>
	</defs>
	<clipPath id="SVGID_20_">
		<use xlink:href="#SVGID_19_"  style="overflow:visible;"/>
	</clipPath>
	<g class="st13">
		<text transform="matrix(1 0 0 1 420.8599 90.23)" class="st3 st4">인터럽트</text>
	</g>
</g>
<g>
	<defs>
		<rect id="SVGID_21_" x="-2" y="-155" width="960" height="540"/>
	</defs>
	<clipPath id="SVGID_22_">
		<use xlink:href="#SVGID_21_"  style="overflow:visible;"/>
	</clipPath>
	<g class="st14">
		<text transform="matrix(1 0 0 1 499.2402 90.23)" class="st3 st4">처리</text>
	</g>
</g>
<rect x="595.9" y="41.4" class="st1" width="135.4" height="84.1"/>
<g>
	<defs>
		<rect id="SVGID_23_" x="-2" y="-155" width="960" height="540"/>
	</defs>
	<clipPath id="SVGID_24_">
		<use xlink:href="#SVGID_23_"  style="overflow:visible;"/>
	</clipPath>
	<g class="st15">
		<text transform="matrix(1 0 0 1 627.5 68.6299)" class="st3 st4">인터럽트</text>
	</g>
</g>
<g>
	<defs>
		<rect id="SVGID_25_" x="-2" y="-155" width="960" height="540"/>
	</defs>
	<clipPath id="SVGID_26_">
		<use xlink:href="#SVGID_25_"  style="overflow:visible;"/>
	</clipPath>
	<g class="st16">
		<text transform="matrix(1 0 0 1 615.3799 90.23)" class="st3 st4">서비스</text>
	</g>
</g>
<g>
	<defs>
		<rect id="SVGID_27_" x="-2" y="-155" width="960" height="540"/>
	</defs>
	<clipPath id="SVGID_28_">
		<use xlink:href="#SVGID_27_"  style="overflow:visible;"/>
	</clipPath>
	<g class="st17">
		<text transform="matrix(1 0 0 1 675.7598 90.23)" class="st3 st4">루틴</text>
	</g>
</g>
<g>
	<defs>
		<rect id="SVGID_29_" x="-2" y="-155" width="960" height="540"/>
	</defs>
	<clipPath id="SVGID_30_">
		<use xlink:href="#SVGID_29_"  style="overflow:visible;"/>
	</clipPath>
	<g class="st18">
		<text transform="matrix(1 0 0 1 624.0195 111.8301)"><tspan x="0" y="0" class="st3 st11">(</tspan><tspan x="5.5" y="0" class="st3 st11">I</tspan><tspan x="10.4" y="0" class="st3 st11">SR</tspan><tspan x="31.1" y="0" class="st3 st11">) </tspan></text>
	</g>
</g>
<g>
	<defs>
		<rect id="SVGID_31_" x="-2" y="-155" width="960" height="540"/>
	</defs>
	<clipPath id="SVGID_32_">
		<use xlink:href="#SVGID_31_"  style="overflow:visible;"/>
	</clipPath>
	<g class="st19">
		<text transform="matrix(1 0 0 1 666.9805 111.8301)" class="st3 st11">실행</text>
	</g>
</g>
<rect x="781.4" y="41.4" class="st1" width="135.2" height="84.1"/>
<g>
	<defs>
		<rect id="SVGID_33_" x="-2" y="-155" width="960" height="540"/>
	</defs>
	<clipPath id="SVGID_34_">
		<use xlink:href="#SVGID_33_"  style="overflow:visible;"/>
	</clipPath>
	<g class="st20">
		<text transform="matrix(1 0 0 1 791.9004 79.4302)" class="st3 st4">프로그램</text>
	</g>
</g>
<g>
	<defs>
		<rect id="SVGID_35_" x="-2" y="-155" width="960" height="540"/>
	</defs>
	<clipPath id="SVGID_36_">
		<use xlink:href="#SVGID_35_"  style="overflow:visible;"/>
	</clipPath>
	<g class="st21">
		<text transform="matrix(1 0 0 1 870.2803 79.4302)" class="st3 st4">실행</text>
	</g>
</g>
<g>
	<defs>
		<rect id="SVGID_37_" x="-2" y="-155" width="960" height="540"/>
	</defs>
	<clipPath id="SVGID_38_">
		<use xlink:href="#SVGID_37_"  style="overflow:visible;"/>
	</clipPath>
	<g class="st22">
		<text transform="matrix(1 0 0 1 831.0195 101.0298)"><tspan x="0" y="0" class="st3 st11">재</tspan><tspan x="18" y="0" class="st3 st11">개</tspan></text>
	</g>
</g>
<path d="M218,80l6.8,3.4l-6.8,3.4V80z M174.7,82.2h44.5v2.3h-44.5V82.2z"/>
<path d="M403.5,86.8l6.8-3.4l-6.8-3.4V86.8z M360.2,84.5h44.5v-2.3h-44.5V84.5z"/>
<path d="M589.1,80l6.8,3.4l-6.8,3.4V80z M545.7,82.2h44.5v2.3h-44.5V82.2z"/>
<path d="M774.6,80l6.8,3.4l-6.8,3.4V80z M731.3,82.2h44.5v2.3h-44.5V82.2z"/>
<path d="M202.8,90.2l-3.4-6.8l-3.4,6.8H202.8z M200.6,174.5V89.1h-2.3v85.4H200.6z"/>
<g>
	<defs>
		<rect id="SVGID_39_" x="-2" y="-155" width="960" height="540"/>
	</defs>
	<clipPath id="SVGID_40_">
		<use xlink:href="#SVGID_39_"  style="overflow:visible;"/>
	</clipPath>
	<g class="st23">
		<text transform="matrix(1 0 0 1 142.2202 202.2402)" class="st3 st4">인터럽트</text>
	</g>
</g>
<g>
	<defs>
		<rect id="SVGID_41_" x="-2" y="-155" width="960" height="540"/>
	</defs>
	<clipPath id="SVGID_42_">
		<use xlink:href="#SVGID_41_"  style="overflow:visible;"/>
	</clipPath>
	<g class="st24">
		<text transform="matrix(1 0 0 1 220.5801 202.2402)" class="st3 st4">발생</text>
	</g>
</g>
<path d="M389.2,90.2l-3.4-6.8l-3.4,6.8H389.2z M386.9,174.5V89.1h-2.3v85.4H386.9z"/>
<g>
	<defs>
		<rect id="SVGID_43_" x="-2" y="-155" width="960" height="540"/>
	</defs>
	<clipPath id="SVGID_44_">
		<use xlink:href="#SVGID_43_"  style="overflow:visible;"/>
	</clipPath>
	<g class="st25">
		<text transform="matrix(1 0 0 1 353.73 202.2402)"><tspan x="0" y="0" class="st3 st4">Con</tspan><tspan x="32.6" y="0" class="st3 st4">t</tspan><tspan x="38.8" y="0" class="st3 st4">ext</tspan></text>
	</g>
</g>
<g>
	<defs>
		<rect id="SVGID_45_" x="-2" y="-155" width="960" height="540"/>
	</defs>
	<clipPath id="SVGID_46_">
		<use xlink:href="#SVGID_45_"  style="overflow:visible;"/>
	</clipPath>
	<g class="st26">
		<text transform="matrix(1 0 0 1 346.4102 223.8398)"><tspan x="0" y="0" class="st3 st11">S</tspan><tspan x="9.5" y="0" class="st3 st11">w</tspan><tspan x="22.7" y="0" class="st3 st11">i</tspan><tspan x="27.1" y="0" class="st3 st11">t</tspan><tspan x="33.1" y="0" class="st3 st11">chin</tspan></text>
	</g>
</g>
<g>
	<defs>
		<rect id="SVGID_47_" x="-2" y="-155" width="960" height="540"/>
	</defs>
	<clipPath id="SVGID_48_">
		<use xlink:href="#SVGID_47_"  style="overflow:visible;"/>
	</clipPath>
	<g class="st27">
		<text transform="matrix(1 0 0 1 413.3901 223.8398)" class="st3 st11">g</text>
	</g>
</g>
<path d="M573.9,90.2l-3.4-6.8l-3.4,6.8H573.9z M571.6,174.5V89.1h-2.3v85.4H571.6z"/>
<g>
	<defs>
		<rect id="SVGID_49_" x="-2" y="-155" width="960" height="540"/>
	</defs>
	<clipPath id="SVGID_50_">
		<use xlink:href="#SVGID_49_"  style="overflow:visible;"/>
	</clipPath>
	<g class="st28">
		<text transform="matrix(1 0 0 1 535.9404 202.2402)"><tspan x="0" y="0" class="st3 st4">I</tspan><tspan x="4.9" y="0" class="st3 st4">SR</tspan></text>
	</g>
</g>
<g>
	<defs>
		<rect id="SVGID_51_" x="-2" y="-155" width="960" height="540"/>
	</defs>
	<clipPath id="SVGID_52_">
		<use xlink:href="#SVGID_51_"  style="overflow:visible;"/>
	</clipPath>
	<g class="st29">
		<text transform="matrix(1 0 0 1 567.9805 202.2402)" class="st3 st4">결정</text>
	</g>
</g>
<path d="M759.4,90.8L756,84l-3.4,6.8H759.4z M757.1,175.1V89.7h-2.3v85.4H757.1z"/>
<g>
	<defs>
		<rect id="SVGID_53_" x="-2" y="-155" width="960" height="540"/>
	</defs>
	<clipPath id="SVGID_54_">
		<use xlink:href="#SVGID_53_"  style="overflow:visible;"/>
	</clipPath>
	<g class="st30">
		<text transform="matrix(1 0 0 1 716.2002 202.8896)" class="st3 st4">상태</text>
	</g>
</g>
<g>
	<defs>
		<rect id="SVGID_55_" x="-2" y="-155" width="960" height="540"/>
	</defs>
	<clipPath id="SVGID_56_">
		<use xlink:href="#SVGID_55_"  style="overflow:visible;"/>
	</clipPath>
	<g class="st31">
		<text transform="matrix(1 0 0 1 758.5801 202.8896)" class="st3 st4">복구</text>
	</g>
</g>
</svg>
