<?xml version="1.0" encoding="utf-8"?>
<!-- Generator: Adobe Illustrator 22.0.1, SVG Export Plug-In . SVG Version: 6.00 Build 0)  -->
<svg version="1.1" id="레이어_1" xmlns="http://www.w3.org/2000/svg" xmlns:xlink="http://www.w3.org/1999/xlink" x="0px"
	 y="0px" viewBox="0 0 742 534" style="enable-background:new 0 0 742 534;" xml:space="preserve">
<style type="text/css">
	.st0{clip-path:url(#SVGID_2_);fill-rule:evenodd;clip-rule:evenodd;fill:#FFFFFF;}
	.st1{fill:none;stroke:#000000;stroke-width:2.28;stroke-miterlimit:10;}
	.st2{clip-path:url(#SVGID_4_);}
	.st3{clip-path:url(#SVGID_6_);}
	.st4{clip-path:url(#SVGID_8_);}
	.st5{clip-path:url(#SVGID_10_);}
	.st6{clip-path:url(#SVGID_12_);}
	.st7{clip-path:url(#SVGID_14_);}
	.st8{clip-path:url(#SVGID_16_);}
	.st9{clip-path:url(#SVGID_18_);}
	.st10{clip-path:url(#SVGID_20_);}
	.st11{clip-path:url(#SVGID_22_);}
	.st12{clip-path:url(#SVGID_24_);}
	.st13{clip-path:url(#SVGID_26_);}
	.st14{clip-path:url(#SVGID_28_);}
	.st15{clip-path:url(#SVGID_30_);}
	.st16{clip-path:url(#SVGID_32_);}
	.st17{clip-path:url(#SVGID_34_);}
	.st18{clip-path:url(#SVGID_36_);}
	.st19{clip-path:url(#SVGID_38_);}
	.st20{clip-path:url(#SVGID_40_);}
	.st21{clip-path:url(#SVGID_42_);}
	.st22{clip-path:url(#SVGID_44_);}
	.st23{clip-path:url(#SVGID_46_);}
	.st24{clip-path:url(#SVGID_48_);}
	.st25{clip-path:url(#SVGID_50_);}
	.st26{clip-path:url(#SVGID_52_);}
	.st27{clip-path:url(#SVGID_54_);}
	.st28{clip-path:url(#SVGID_56_);}
	.st29{clip-path:url(#SVGID_58_);}
	.st30{clip-path:url(#SVGID_60_);}
	.st31{clip-path:url(#SVGID_62_);}
	.st32{clip-path:url(#SVGID_64_);}
	.st33{clip-path:url(#SVGID_66_);}
	.st34{clip-path:url(#SVGID_68_);}
	.st35{clip-path:url(#SVGID_70_);}
	.st36{clip-path:url(#SVGID_72_);}
	.st37{clip-path:url(#SVGID_74_);}
</style>
<g>
	<defs>
		<rect id="SVGID_1_" x="-56" y="-6" width="960" height="540"/>
	</defs>
	<clipPath id="SVGID_2_">
		<use xlink:href="#SVGID_1_"  style="overflow:visible;"/>
	</clipPath>
	<rect x="-56" y="-6" class="st0" width="960" height="540"/>
</g>
<rect x="53.6" y="94.9" class="st1" width="96.8" height="389.8"/>
<path d="M105.4,222.2L102,229l-3.4-6.8H105.4z M103.1,145.6v77.7h-2.3v-77.7H103.1z"/>
<g>
	<defs>
		<rect id="SVGID_3_" x="-56" y="-6" width="960" height="540"/>
	</defs>
	<clipPath id="SVGID_4_">
		<use xlink:href="#SVGID_3_"  style="overflow:visible;"/>
	</clipPath>
	<g class="st2">
		<path d="M74.5,71.4v4.9h-1.4V63.3h3.5c1.4,0,2.4,0.3,3.2,1s1.1,1.6,1.1,2.8c0,1.3-0.4,2.3-1.3,3.1s-2,1.2-3.3,1.1H74.5z
			 M74.5,64.7V70h1.6c1.1,0,1.9-0.2,2.4-0.7s0.8-1.2,0.8-2.1c0-1.7-1-2.6-3.1-2.6H74.5z"/>
		<path d="M88,68.5c-0.3-0.2-0.6-0.3-1.1-0.3c-0.6,0-1.2,0.3-1.6,0.9s-0.6,1.4-0.6,2.5v4.7h-1.4V67h1.4v1.9h0c0.2-0.7,0.5-1.2,1-1.5
			s0.9-0.5,1.4-0.5c0.4,0,0.7,0,0.9,0.1V68.5z"/>
		<path d="M88.7,71.8c0-1.5,0.4-2.7,1.3-3.6s2-1.3,3.4-1.3c1.3,0,2.4,0.4,3.2,1.3s1.2,2,1.2,3.5c0,1.5-0.4,2.6-1.3,3.5
			s-1.9,1.3-3.3,1.3c-1.3,0-2.4-0.4-3.2-1.3S88.7,73.2,88.7,71.8z M90.2,71.7c0,1.1,0.3,2,0.9,2.6s1.3,1,2.3,1c1,0,1.7-0.3,2.3-0.9
			s0.8-1.5,0.8-2.7c0-1.2-0.3-2.1-0.8-2.7s-1.3-1-2.3-1c-1,0-1.7,0.3-2.3,1S90.2,70.6,90.2,71.7z"/>
		<path d="M106.4,75.8c-0.7,0.4-1.6,0.7-2.5,0.7c-1.3,0-2.3-0.4-3.2-1.3s-1.2-2-1.2-3.4c0-1.5,0.4-2.8,1.3-3.7s2-1.4,3.5-1.4
			c0.8,0,1.5,0.1,2.1,0.4v1.5c-0.7-0.5-1.4-0.7-2.2-0.7c-0.9,0-1.7,0.3-2.3,1s-0.9,1.6-0.9,2.7c0,1.1,0.3,1.9,0.8,2.6s1.3,1,2.3,1
			c0.8,0,1.6-0.3,2.3-0.8V75.8z"/>
		<path d="M116,72h-6.5c0,1.1,0.3,1.9,0.9,2.4s1.3,0.8,2.2,0.8c1.1,0,2-0.3,2.9-1v1.3c-0.8,0.6-1.9,0.9-3.2,0.9
			c-1.3,0-2.3-0.4-3.1-1.3s-1.1-2-1.1-3.5c0-1.4,0.4-2.6,1.2-3.5s1.8-1.4,3-1.4s2.1,0.4,2.8,1.2s1,1.9,1,3.2V72z M114.6,70.8
			c0-0.9-0.2-1.5-0.6-2s-1-0.7-1.7-0.7c-0.7,0-1.3,0.3-1.8,0.8s-0.8,1.2-0.9,2H114.6z"/>
		<path d="M117.7,74.4c0.8,0.6,1.7,0.9,2.7,0.9c1.3,0,2-0.4,2-1.3c0-0.4-0.1-0.7-0.4-0.9s-0.9-0.5-1.7-0.8c-1-0.4-1.6-0.8-2-1.2
			s-0.5-0.9-0.5-1.5c0-0.8,0.3-1.4,1-1.9s1.5-0.7,2.5-0.7c0.8,0,1.5,0.1,2.1,0.4v1.5c-0.7-0.4-1.5-0.7-2.3-0.7c-0.6,0-1,0.1-1.4,0.4
			s-0.5,0.6-0.5,1c0,0.4,0.1,0.7,0.4,0.9s0.8,0.5,1.6,0.8c1.1,0.4,1.8,0.8,2.2,1.3s0.5,0.9,0.5,1.5c0,0.8-0.3,1.5-1,1.9
			s-1.5,0.7-2.6,0.7c-1,0-1.8-0.2-2.5-0.6V74.4z"/>
	</g>
</g>
<g>
	<defs>
		<rect id="SVGID_5_" x="-56" y="-6" width="960" height="540"/>
	</defs>
	<clipPath id="SVGID_6_">
		<use xlink:href="#SVGID_5_"  style="overflow:visible;"/>
	</clipPath>
	<g class="st3">
		<path d="M125.5,74.4c0.8,0.6,1.7,0.9,2.7,0.9c1.3,0,2-0.4,2-1.3c0-0.4-0.1-0.7-0.4-0.9s-0.9-0.5-1.7-0.8c-1-0.4-1.6-0.8-2-1.2
			s-0.5-0.9-0.5-1.5c0-0.8,0.3-1.4,1-1.9s1.5-0.7,2.5-0.7c0.8,0,1.5,0.1,2.1,0.4v1.5c-0.7-0.4-1.5-0.7-2.3-0.7c-0.6,0-1,0.1-1.4,0.4
			s-0.5,0.6-0.5,1c0,0.4,0.1,0.7,0.4,0.9s0.8,0.5,1.6,0.8c1.1,0.4,1.8,0.8,2.2,1.3s0.5,0.9,0.5,1.5c0,0.8-0.3,1.5-1,1.9
			s-1.5,0.7-2.6,0.7c-1,0-1.8-0.2-2.5-0.6V74.4z"/>
	</g>
</g>
<line class="st1" x1="67.3" y1="234.1" x2="138.1" y2="234.1"/>
<path d="M105.4,396.2L102,403l-3.4-6.8H105.4z M103.1,242.7v154.6h-2.3V242.7H103.1z"/>
<path d="M389,112.7l4.8-5.9l-7.6-0.3L389,112.7z M124.4,229.7l264.7-119.6l-0.9-2.1L123.5,227.6L124.4,229.7z"/>
<rect x="411.9" y="62.5" class="st1" width="135.4" height="84.2"/>
<line class="st1" x1="401.9" y1="401" x2="491.4" y2="401"/>
<g>
	<defs>
		<rect id="SVGID_7_" x="-56" y="-6" width="960" height="540"/>
	</defs>
	<clipPath id="SVGID_8_">
		<use xlink:href="#SVGID_7_"  style="overflow:visible;"/>
	</clipPath>
	<g class="st4">
		<path d="M394.2,43.9h-1.4V30.9h1.4V43.9z"/>
		<path d="M405,43.9h-1.4v-5.3c0-2-0.7-3-2.2-3c-0.8,0-1.4,0.3-1.9,0.8s-0.7,1.3-0.7,2.2v5.3h-1.4v-9.2h1.4v1.5h0
			c0.7-1.2,1.7-1.8,3-1.8c1,0,1.8,0.3,2.3,1s0.8,1.6,0.8,2.8V43.9z"/>
		<path d="M412,43.8c-0.4,0.2-0.8,0.3-1.3,0.3c-1.6,0-2.4-0.9-2.4-2.7v-5.6h-1.6v-1.2h1.6v-2.3l1.4-0.4v2.7h2.3v1.2h-2.3v5.3
			c0,0.7,0.1,1.1,0.3,1.4s0.6,0.4,1.1,0.4c0.4,0,0.7-0.1,1-0.3V43.8z"/>
		<path d="M421.4,39.6h-6.5c0,1.1,0.3,1.9,0.9,2.4s1.3,0.8,2.2,0.8c1.1,0,2-0.3,2.9-1v1.3c-0.8,0.6-1.9,0.9-3.2,0.9
			c-1.3,0-2.3-0.4-3.1-1.3s-1.1-2-1.1-3.5c0-1.4,0.4-2.6,1.2-3.5s1.8-1.4,3-1.4s2.1,0.4,2.8,1.2s1,1.9,1,3.2V39.6z M419.9,38.4
			c0-0.9-0.2-1.5-0.6-2s-1-0.7-1.7-0.7c-0.7,0-1.3,0.3-1.8,0.8s-0.8,1.2-0.9,2H419.9z"/>
		<path d="M428.4,36.1c-0.3-0.2-0.6-0.3-1.1-0.3c-0.6,0-1.2,0.3-1.6,0.9s-0.6,1.4-0.6,2.5v4.7h-1.4v-9.2h1.4v1.9h0
			c0.2-0.7,0.5-1.2,1-1.5c0.4-0.4,0.9-0.5,1.4-0.5c0.4,0,0.7,0,0.9,0.1V36.1z"/>
		<path d="M434.8,36.1c-0.3-0.2-0.6-0.3-1.1-0.3c-0.6,0-1.2,0.3-1.6,0.9s-0.6,1.4-0.6,2.5v4.7H430v-9.2h1.4v1.9h0
			c0.2-0.7,0.5-1.2,1-1.5c0.4-0.4,0.9-0.5,1.4-0.5c0.4,0,0.7,0,0.9,0.1V36.1z"/>
		<path d="M443.7,43.9h-1.4v-1.5h0c-0.6,1.1-1.6,1.7-2.8,1.7c-2.2,0-3.3-1.3-3.3-3.9v-5.5h1.4v5.3c0,2,0.8,3,2.3,3
			c0.7,0,1.3-0.3,1.8-0.8s0.7-1.3,0.7-2.1v-5.3h1.4V43.9z"/>
		<path d="M448.1,42.5v5.6h-1.4V34.6h1.4v1.6h0c0.7-1.2,1.8-1.8,3.2-1.8c1.2,0,2.1,0.4,2.8,1.2s1,1.9,1,3.3c0,1.6-0.4,2.8-1.1,3.7
			c-0.8,0.9-1.8,1.4-3.1,1.4C449.8,44.1,448.8,43.6,448.1,42.5L448.1,42.5z M448.1,40.1c0,0.8,0.3,1.4,0.8,2s1.2,0.8,1.9,0.8
			c0.9,0,1.6-0.3,2.1-1c0.5-0.7,0.8-1.7,0.8-2.9c0-1-0.2-1.8-0.7-2.4c-0.5-0.6-1.1-0.9-2-0.9c-0.8,0-1.5,0.3-2.1,0.9
			s-0.8,1.4-0.8,2.3V40.1z"/>
		<path d="M461.8,43.8c-0.4,0.2-0.8,0.3-1.3,0.3c-1.6,0-2.4-0.9-2.4-2.7v-5.6h-1.6v-1.2h1.6v-2.3l1.4-0.4v2.7h2.3v1.2h-2.3v5.3
			c0,0.7,0.1,1.1,0.3,1.4s0.6,0.4,1.1,0.4c0.4,0,0.7-0.1,1-0.3V43.8z"/>
		<path d="M479.8,30.9L475,43.9h-1.6l-4.7-12.9h1.6l3.6,10.3c0.1,0.3,0.2,0.7,0.3,1.1h0c0-0.4,0.1-0.7,0.3-1.2l3.7-10.3H479.8z"/>
		<path d="M487.6,39.6h-6.5c0,1.1,0.3,1.9,0.9,2.4s1.3,0.8,2.2,0.8c1.1,0,2-0.3,2.9-1v1.3c-0.8,0.6-1.9,0.9-3.2,0.9
			c-1.3,0-2.3-0.4-3.1-1.3s-1.1-2-1.1-3.5c0-1.4,0.4-2.6,1.2-3.5s1.8-1.4,3-1.4s2.1,0.4,2.8,1.2c0.7,0.8,1,1.9,1,3.2V39.6z
			 M486.2,38.4c0-0.9-0.2-1.5-0.6-2c-0.4-0.5-1-0.7-1.7-0.7c-0.7,0-1.3,0.3-1.8,0.8s-0.8,1.2-0.9,2H486.2z"/>
		<path d="M496.1,43.4c-0.7,0.4-1.6,0.7-2.5,0.7c-1.3,0-2.3-0.4-3.2-1.3s-1.2-2-1.2-3.4c0-1.5,0.4-2.8,1.3-3.7s2-1.4,3.5-1.4
			c0.8,0,1.5,0.1,2.1,0.4v1.5c-0.7-0.5-1.4-0.7-2.2-0.7c-0.9,0-1.7,0.3-2.3,1c-0.6,0.7-0.9,1.6-0.9,2.7c0,1.1,0.3,1.9,0.8,2.6
			s1.3,1,2.3,1c0.8,0,1.6-0.3,2.3-0.8V43.4z"/>
		<path d="M502.6,43.8c-0.4,0.2-0.8,0.3-1.3,0.3c-1.6,0-2.4-0.9-2.4-2.7v-5.6h-1.6v-1.2h1.6v-2.3l1.4-0.4v2.7h2.3v1.2h-2.3v5.3
			c0,0.7,0.1,1.1,0.3,1.4s0.6,0.4,1.1,0.4c0.4,0,0.7-0.1,1-0.3V43.8z"/>
		<path d="M503.9,39.4c0-1.5,0.4-2.7,1.3-3.6c0.8-0.9,2-1.3,3.4-1.3c1.3,0,2.4,0.4,3.2,1.3c0.8,0.8,1.2,2,1.2,3.5
			c0,1.5-0.4,2.6-1.3,3.5s-1.9,1.3-3.3,1.3c-1.3,0-2.4-0.4-3.2-1.3S503.9,40.8,503.9,39.4z M505.3,39.3c0,1.1,0.3,2,0.9,2.6
			c0.6,0.7,1.3,1,2.3,1c1,0,1.7-0.3,2.3-0.9s0.8-1.5,0.8-2.7c0-1.2-0.3-2.1-0.8-2.7s-1.3-1-2.3-1c-1,0-1.7,0.3-2.3,1
			S505.3,38.2,505.3,39.3z"/>
		<path d="M520,36.1c-0.3-0.2-0.6-0.3-1.1-0.3c-0.6,0-1.2,0.3-1.6,0.9s-0.6,1.4-0.6,2.5v4.7h-1.4v-9.2h1.4v1.9h0
			c0.2-0.7,0.5-1.2,1-1.5c0.4-0.4,0.9-0.5,1.4-0.5c0.4,0,0.7,0,0.9,0.1V36.1z"/>
		<path d="M535.7,32.2h-3.7v11.6h-1.4V32.2h-3.7v-1.3h8.9V32.2z"/>
		<path d="M535.7,35.3c0.9-0.6,1.9-0.9,3.1-0.9c2.1,0,3.2,1.1,3.2,3.4v6h-1.4v-1.5h-0.1c-0.6,1.1-1.6,1.7-2.8,1.7
			c-0.9,0-1.6-0.2-2.1-0.7s-0.8-1.1-0.8-1.9c0-1.7,1-2.7,3-3l2.8-0.4c0-1.6-0.6-2.4-1.9-2.4c-1.1,0-2.1,0.4-3,1.2V35.3z M538.4,39.5
			c-0.7,0.1-1.3,0.3-1.6,0.5s-0.5,0.7-0.5,1.3c0,0.5,0.2,0.8,0.5,1.1c0.3,0.3,0.8,0.4,1.3,0.4c0.7,0,1.4-0.3,1.8-0.8s0.7-1.2,0.7-2
			v-0.9L538.4,39.5z"/>
		<path d="M546.2,42.5v1.4h-1.4V30.2h1.4v6.1h0c0.7-1.2,1.8-1.8,3.2-1.8c1.2,0,2.1,0.4,2.8,1.2c0.7,0.8,1,1.9,1,3.3
			c0,1.6-0.4,2.8-1.1,3.7c-0.8,0.9-1.8,1.4-3.1,1.4C547.8,44.1,546.9,43.6,546.2,42.5L546.2,42.5z M546.2,40.1c0,0.8,0.3,1.4,0.8,2
			s1.2,0.8,1.9,0.8c0.9,0,1.6-0.3,2.1-1c0.5-0.7,0.8-1.7,0.8-2.9c0-1-0.2-1.8-0.7-2.4c-0.5-0.6-1.1-0.9-2-0.9
			c-0.9,0-1.6,0.3-2.1,0.9s-0.8,1.4-0.8,2.3V40.1z"/>
		<path d="M555.7,43.9V30.2h1.4v13.7H555.7z"/>
		<path d="M567.4,39.6h-6.5c0,1.1,0.3,1.9,0.9,2.4s1.3,0.8,2.2,0.8c1.1,0,2-0.3,2.9-1v1.3c-0.8,0.6-1.9,0.9-3.2,0.9
			c-1.3,0-2.3-0.4-3.1-1.3s-1.1-2-1.1-3.5c0-1.4,0.4-2.6,1.2-3.5s1.8-1.4,3-1.4s2.1,0.4,2.8,1.2c0.7,0.8,1,1.9,1,3.2V39.6z
			 M566,38.4c0-0.9-0.2-1.5-0.6-2c-0.4-0.5-1-0.7-1.7-0.7c-0.7,0-1.3,0.3-1.8,0.8s-0.8,1.2-0.9,2H566z"/>
	</g>
</g>
<g>
	<defs>
		<rect id="SVGID_9_" x="-56" y="-6" width="960" height="540"/>
	</defs>
	<clipPath id="SVGID_10_">
		<use xlink:href="#SVGID_9_"  style="overflow:visible;"/>
	</clipPath>
	<g class="st5">
		<path d="M179,227.3c1.9,0,3.6,0.7,4.9,2s2,3,2,5c0,2-0.7,3.6-2,5c-1.3,1.3-3,2-4.9,2c-2,0-3.6-0.7-5-2c-1.3-1.3-2-3-2-5
			c0-2,0.7-3.6,2-5S177.1,227.3,179,227.3z M179,240.7c1.8,0,3.3-0.6,4.5-1.9s1.8-2.7,1.8-4.5c0-1.8-0.6-3.3-1.8-4.6
			s-2.7-1.8-4.5-1.8c-1.8,0-3.3,0.6-4.5,1.8s-1.8,2.7-1.8,4.6c0,1.8,0.6,3.3,1.8,4.6C175.6,240.1,177.2,240.7,179,240.7z
			 M176.6,238.4v-0.9h2V231l-2,0.6v-1l3-0.9v7.7h1.9v0.9H176.6z"/>
	</g>
</g>
<g>
	<defs>
		<rect id="SVGID_11_" x="-56" y="-6" width="960" height="540"/>
	</defs>
	<clipPath id="SVGID_12_">
		<use xlink:href="#SVGID_11_"  style="overflow:visible;"/>
	</clipPath>
	<g class="st6">
		<path d="M198.7,233.4c-1.1,0-2.1-0.4-2.8-1.1c-0.8-0.7-1.1-1.6-1.1-2.8c0-1.1,0.4-2.1,1.1-2.8c0.8-0.7,1.7-1.1,2.8-1.1
			s2.1,0.4,2.8,1.1c0.7,0.7,1.1,1.6,1.1,2.8c0,1.1-0.4,2-1.1,2.8C200.7,233.1,199.8,233.4,198.7,233.4z M198.7,226.9
			c-0.8,0-1.5,0.3-2,0.8s-0.8,1.2-0.8,2c0,0.8,0.3,1.5,0.8,2s1.2,0.8,2,0.8s1.5-0.3,2-0.8c0.5-0.5,0.8-1.2,0.8-2
			c0-0.8-0.3-1.5-0.8-2C200.2,227.1,199.5,226.9,198.7,226.9z M196.6,239.7v-4.9h1.2v3.8h8.7v1.1H196.6z M204.9,236.2v-11h1.2v11
			H204.9z"/>
		<path d="M212.1,231.8v3.7h1.8c2.3,0,4-0.1,5-0.2l0.1,1c-0.8,0.1-1.7,0.2-2.6,0.2s-2.7,0-5.5,0v-10.1h7.2v1.1h-6v3.3h4.4v1H212.1z
			 M220.7,240.3v-7.7h-3v-1h3v-6.3h1.2v15H220.7z"/>
		<path d="M234.7,232.5c-0.8,0.1-1.6,0.2-2.4,0.2c-0.9,0-2.6,0.1-5.2,0.1v-4.1h5.1v-1.9h-5.1v-1h6.3v3.9h-5.1v2
			c3.5,0,5.6-0.1,6.3-0.3L234.7,232.5z M228.8,239.9v-5.7h1.1v1.9h6.9v-1.9h1.2v5.7H228.8z M236.9,237.1h-6.9v1.8h6.9V237.1z
			 M236.8,233.3v-3.4h-2.8v-1h2.8v-3.6h1.2v8.1H236.8z"/>
		<path d="M241.5,237.9v-1h13.9v1H241.5z M253.3,227.7h-8.4v2.2h8v1h-8v2.1h8.6v1h-9.8v-7.3h9.5V227.7z"/>
	</g>
</g>
<g>
	<defs>
		<rect id="SVGID_13_" x="-56" y="-6" width="960" height="540"/>
	</defs>
	<clipPath id="SVGID_14_">
		<use xlink:href="#SVGID_13_"  style="overflow:visible;"/>
	</clipPath>
	<g class="st7">
		<path d="M264.1,232.1v-6.3h1.1v2.3h4.6v-2.3h1.1v6.3H264.1z M269.8,229.1h-4.6v2h4.6V229.1z M265.8,240.1v-3.7h8v-1.7h-8v-1h9.2
			v3.7h-8v1.7h8.4v1H265.8z M275,229.9v3h-1.1v-7.6h1.1v3.7h2.3v1H275z"/>
		<path d="M286,232.9c-0.6-0.3-1.2-0.8-1.8-1.5c-0.6-0.7-1-1.3-1.2-1.8c-0.2,0.6-0.6,1.3-1.2,2s-1.2,1.3-1.9,1.7l-0.8-0.8
			c1-0.5,1.8-1.3,2.4-2.2c0.6-0.9,0.9-1.9,0.9-2.9v-1.6h1.1v1.6c0,1,0.3,1.9,0.9,2.7c0.6,0.9,1.4,1.5,2.3,1.9L286,232.9z M286.9,240
			c-1.6,0-2.8-0.3-3.7-0.8c-0.9-0.5-1.3-1.2-1.3-2.1s0.4-1.5,1.3-2.1c0.9-0.5,2.1-0.8,3.7-0.8c1.6,0,2.8,0.3,3.7,0.8
			c0.9,0.5,1.3,1.2,1.3,2.1s-0.4,1.5-1.3,2.1C289.7,239.7,288.5,240,286.9,240z M286.9,235.3c-1.2,0-2.1,0.2-2.8,0.5
			c-0.7,0.4-1,0.8-1,1.4c0,0.6,0.3,1,1,1.4s1.6,0.5,2.8,0.5c1.2,0,2.1-0.2,2.8-0.5s1-0.8,1-1.4c0-0.6-0.3-1-1-1.4
			C289,235.4,288.1,235.3,286.9,235.3z M290.6,234v-3.8h-1.8v3.4h-1.2v-8.1h1.2v3.7h1.8v-4h1.2v8.8H290.6z"/>
	</g>
</g>
<g>
	<defs>
		<rect id="SVGID_15_" x="-56" y="-6" width="960" height="540"/>
	</defs>
	<clipPath id="SVGID_16_">
		<use xlink:href="#SVGID_15_"  style="overflow:visible;"/>
	</clipPath>
	<g class="st8">
		<path d="M466.5,157.2c1.9,0,3.6,0.7,4.9,2c1.3,1.3,2,3,2,5c0,2-0.7,3.6-2,5s-3,2-5,2c-2,0-3.6-0.7-5-2s-2-3-2-5c0-2,0.7-3.6,2-5
			C462.9,157.8,464.5,157.2,466.5,157.2z M466.5,170.6c1.8,0,3.3-0.6,4.6-1.9s1.8-2.8,1.8-4.6c0-1.8-0.6-3.3-1.8-4.6
			c-1.2-1.2-2.7-1.8-4.5-1.8c-1.8,0-3.3,0.6-4.5,1.8c-1.2,1.2-1.8,2.8-1.8,4.6c0,1.8,0.6,3.3,1.8,4.6
			C463.1,169.9,464.6,170.6,466.5,170.6z M463.4,168.2v-0.9l2.9-2.8c1-1.1,1.4-1.9,1.4-2.5c0-1-0.5-1.5-1.6-1.5
			c-0.7,0-1.5,0.3-2.3,0.9v-1.1c0.7-0.5,1.5-0.7,2.4-0.7c0.8,0,1.4,0.2,1.9,0.6c0.4,0.4,0.7,1,0.7,1.6c0,0.6-0.2,1.1-0.5,1.6
			s-0.9,1.1-1.6,1.9l-2,1.9h4.1v0.9H463.4z"/>
	</g>
</g>
<g>
	<defs>
		<rect id="SVGID_17_" x="-56" y="-6" width="960" height="540"/>
	</defs>
	<clipPath id="SVGID_18_">
		<use xlink:href="#SVGID_17_"  style="overflow:visible;"/>
	</clipPath>
	<g class="st9">
		<path d="M482.8,168.7h-1.3v-11.5h1.3V168.7z"/>
		<path d="M492.5,168.7h-1.2v-4.7c0-1.8-0.6-2.7-1.9-2.7c-0.7,0-1.2,0.3-1.7,0.8c-0.4,0.5-0.7,1.1-0.7,1.9v4.7h-1.2v-8.2h1.2v1.4h0
			c0.6-1,1.5-1.6,2.7-1.6c0.9,0,1.6,0.3,2.1,0.9c0.5,0.6,0.7,1.4,0.7,2.5V168.7z"/>
		<path d="M498.7,168.7c-0.3,0.2-0.7,0.3-1.2,0.3c-1.4,0-2.1-0.8-2.1-2.4v-4.9H494v-1.1h1.4v-2l1.2-0.4v2.4h2.1v1.1h-2.1v4.7
			c0,0.6,0.1,1,0.3,1.2c0.2,0.2,0.5,0.3,0.9,0.3c0.3,0,0.6-0.1,0.9-0.3V168.7z"/>
		<path d="M506.9,164.9h-5.8c0,0.9,0.3,1.7,0.8,2.2c0.5,0.5,1.1,0.8,1.9,0.8c0.9,0,1.8-0.3,2.6-0.9v1.2c-0.7,0.5-1.7,0.8-2.8,0.8
			c-1.2,0-2.1-0.4-2.7-1.1c-0.7-0.8-1-1.8-1-3.1c0-1.2,0.4-2.3,1.1-3.1s1.6-1.2,2.7-1.2s1.9,0.3,2.5,1c0.6,0.7,0.9,1.7,0.9,2.9
			V164.9z M505.6,163.9c0-0.8-0.2-1.4-0.5-1.8c-0.4-0.4-0.9-0.6-1.5-0.6c-0.6,0-1.2,0.2-1.6,0.7s-0.7,1-0.8,1.8H505.6z"/>
		<path d="M513.1,161.8c-0.2-0.2-0.6-0.3-1-0.3c-0.6,0-1,0.3-1.4,0.8s-0.6,1.3-0.6,2.2v4.2h-1.2v-8.2h1.2v1.7h0
			c0.2-0.6,0.5-1,0.9-1.4c0.4-0.3,0.8-0.5,1.3-0.5c0.3,0,0.6,0,0.8,0.1V161.8z"/>
		<path d="M518.8,161.8c-0.2-0.2-0.6-0.3-1-0.3c-0.6,0-1,0.3-1.4,0.8s-0.6,1.3-0.6,2.2v4.2h-1.2v-8.2h1.2v1.7h0
			c0.2-0.6,0.5-1,0.9-1.4c0.4-0.3,0.8-0.5,1.3-0.5c0.3,0,0.6,0,0.8,0.1V161.8z"/>
		<path d="M526.8,168.7h-1.2v-1.3h0c-0.5,1-1.4,1.5-2.5,1.5c-2,0-2.9-1.2-2.9-3.5v-4.9h1.2v4.7c0,1.8,0.7,2.6,2,2.6
			c0.7,0,1.2-0.2,1.6-0.7c0.4-0.5,0.6-1.1,0.6-1.9v-4.7h1.2V168.7z"/>
		<path d="M530.7,167.5v5h-1.2v-12h1.2v1.5h0c0.7-1.1,1.6-1.6,2.8-1.6c1,0,1.9,0.4,2.5,1.1s0.9,1.7,0.9,3c0,1.4-0.3,2.5-1,3.3
			s-1.6,1.2-2.7,1.2C532.1,168.9,531.3,168.5,530.7,167.5L530.7,167.5z M530.7,165.4c0,0.7,0.2,1.3,0.7,1.7c0.5,0.5,1,0.7,1.7,0.7
			c0.8,0,1.4-0.3,1.9-0.9c0.5-0.6,0.7-1.5,0.7-2.6c0-0.9-0.2-1.6-0.7-2.2c-0.4-0.5-1-0.8-1.7-0.8c-0.8,0-1.4,0.3-1.9,0.8
			c-0.5,0.5-0.7,1.2-0.7,2V165.4z"/>
		<path d="M542.8,168.7c-0.3,0.2-0.7,0.3-1.2,0.3c-1.4,0-2.1-0.8-2.1-2.4v-4.9H538v-1.1h1.4v-2l1.2-0.4v2.4h2.1v1.1h-2.1v4.7
			c0,0.6,0.1,1,0.3,1.2c0.2,0.2,0.5,0.3,0.9,0.3c0.3,0,0.6-0.1,0.9-0.3V168.7z"/>
	</g>
</g>
<g>
	<defs>
		<rect id="SVGID_19_" x="-56" y="-6" width="960" height="540"/>
	</defs>
	<clipPath id="SVGID_20_">
		<use xlink:href="#SVGID_19_"  style="overflow:visible;"/>
	</clipPath>
	<g class="st10">
		<path d="M558.9,157.3l-4.3,11.5h-1.4l-4.2-11.5h1.4l3.2,9.2c0.1,0.3,0.2,0.6,0.2,1h0c0-0.3,0.1-0.7,0.3-1l3.3-9.2H558.9z"/>
		<path d="M565.8,164.9H560c0,0.9,0.3,1.7,0.8,2.2c0.5,0.5,1.1,0.8,1.9,0.8c0.9,0,1.8-0.3,2.6-0.9v1.2c-0.7,0.5-1.7,0.8-2.8,0.8
			c-1.2,0-2.1-0.4-2.7-1.1c-0.7-0.8-1-1.8-1-3.1c0-1.2,0.4-2.3,1.1-3.1s1.6-1.2,2.7-1.2s1.9,0.3,2.5,1c0.6,0.7,0.9,1.7,0.9,2.9
			V164.9z M564.5,163.9c0-0.8-0.2-1.4-0.5-1.8c-0.4-0.4-0.9-0.6-1.5-0.6c-0.6,0-1.2,0.2-1.6,0.7s-0.7,1-0.8,1.8H564.5z"/>
		<path d="M573.4,168.4c-0.6,0.4-1.4,0.6-2.2,0.6c-1.1,0-2.1-0.4-2.8-1.1c-0.7-0.7-1.1-1.7-1.1-3c0-1.4,0.4-2.4,1.2-3.3
			s1.8-1.2,3.1-1.2c0.7,0,1.3,0.1,1.9,0.4v1.3c-0.6-0.4-1.3-0.6-2-0.6c-0.8,0-1.5,0.3-2.1,0.9c-0.5,0.6-0.8,1.4-0.8,2.4
			c0,1,0.3,1.7,0.8,2.3c0.5,0.6,1.2,0.9,2.1,0.9c0.7,0,1.4-0.2,2-0.7V168.4z"/>
		<path d="M579.1,168.7c-0.3,0.2-0.7,0.3-1.2,0.3c-1.4,0-2.1-0.8-2.1-2.4v-4.9h-1.4v-1.1h1.4v-2l1.2-0.4v2.4h2.1v1.1H577v4.7
			c0,0.6,0.1,1,0.3,1.2c0.2,0.2,0.5,0.3,0.9,0.3c0.3,0,0.6-0.1,0.9-0.3V168.7z"/>
		<path d="M580.2,164.7c0-1.4,0.4-2.4,1.1-3.2s1.8-1.2,3-1.2c1.2,0,2.1,0.4,2.8,1.1s1,1.8,1,3.1c0,1.3-0.4,2.3-1.1,3.1
			s-1.7,1.2-2.9,1.2c-1.2,0-2.1-0.4-2.9-1.2S580.2,166,580.2,164.7z M581.5,164.7c0,1,0.3,1.7,0.8,2.3c0.5,0.6,1.2,0.9,2,0.9
			c0.9,0,1.5-0.3,2-0.8c0.5-0.6,0.7-1.4,0.7-2.4c0-1-0.2-1.8-0.7-2.4s-1.1-0.9-2-0.9c-0.8,0-1.5,0.3-2,0.9
			C581.7,162.9,581.5,163.7,581.5,164.7z"/>
		<path d="M594.6,161.8c-0.2-0.2-0.6-0.3-1-0.3c-0.6,0-1,0.3-1.4,0.8s-0.6,1.3-0.6,2.2v4.2h-1.2v-8.2h1.2v1.7h0
			c0.2-0.6,0.5-1,0.9-1.4c0.4-0.3,0.8-0.5,1.3-0.5c0.3,0,0.6,0,0.8,0.1V161.8z"/>
	</g>
</g>
<g>
	<defs>
		<rect id="SVGID_21_" x="-56" y="-6" width="960" height="540"/>
	</defs>
	<clipPath id="SVGID_22_">
		<use xlink:href="#SVGID_21_"  style="overflow:visible;"/>
	</clipPath>
	<g class="st11">
		<path d="M608.8,158.4h-3.3v10.3h-1.3v-10.3h-3.3v-1.2h7.9V158.4z"/>
		<path d="M608.8,161.1c0.8-0.5,1.7-0.8,2.8-0.8c1.9,0,2.9,1,2.9,3v5.4h-1.2v-1.3h0c-0.6,1-1.4,1.5-2.5,1.5c-0.8,0-1.4-0.2-1.9-0.6
			c-0.5-0.4-0.7-1-0.7-1.7c0-1.5,0.9-2.4,2.7-2.7l2.5-0.4c0-1.4-0.6-2.1-1.7-2.1c-1,0-1.9,0.3-2.7,1V161.1z M611.2,164.8
			c-0.6,0.1-1.1,0.2-1.4,0.5c-0.3,0.2-0.5,0.6-0.5,1.2c0,0.4,0.1,0.8,0.4,1s0.7,0.4,1.2,0.4c0.7,0,1.2-0.2,1.6-0.7
			c0.4-0.5,0.6-1.1,0.6-1.8v-0.8L611.2,164.8z"/>
		<path d="M618.2,167.5v1.2h-1.2v-12.1h1.2v5.4h0c0.7-1.1,1.6-1.6,2.8-1.6c1,0,1.9,0.4,2.5,1.1c0.6,0.7,0.9,1.7,0.9,2.9
			c0,1.4-0.3,2.5-1,3.3s-1.6,1.2-2.7,1.2C619.6,168.9,618.8,168.5,618.2,167.5L618.2,167.5z M618.2,165.4c0,0.7,0.2,1.3,0.7,1.8
			c0.5,0.5,1,0.7,1.7,0.7c0.8,0,1.4-0.3,1.9-0.9c0.5-0.6,0.7-1.5,0.7-2.6c0-0.9-0.2-1.6-0.7-2.2c-0.4-0.5-1-0.8-1.7-0.8
			c-0.8,0-1.4,0.3-1.9,0.8c-0.5,0.5-0.7,1.2-0.7,2V165.4z"/>
		<path d="M626.6,168.7v-12.1h1.2v12.1H626.6z"/>
		<path d="M637,164.9h-5.8c0,0.9,0.3,1.7,0.8,2.2c0.5,0.5,1.1,0.8,1.9,0.8c0.9,0,1.8-0.3,2.6-0.9v1.2c-0.7,0.5-1.7,0.8-2.8,0.8
			c-1.2,0-2.1-0.4-2.7-1.1c-0.7-0.8-1-1.8-1-3.1c0-1.2,0.4-2.3,1.1-3.1s1.6-1.2,2.7-1.2s1.9,0.3,2.5,1c0.6,0.7,0.9,1.7,0.9,2.9
			V164.9z M635.7,163.9c0-0.8-0.2-1.4-0.5-1.8c-0.4-0.4-0.9-0.6-1.5-0.6c-0.6,0-1.2,0.2-1.6,0.7s-0.7,1-0.8,1.8H635.7z"/>
	</g>
</g>
<g>
	<defs>
		<rect id="SVGID_23_" x="-56" y="-6" width="960" height="540"/>
	</defs>
	<clipPath id="SVGID_24_">
		<use xlink:href="#SVGID_23_"  style="overflow:visible;"/>
	</clipPath>
	<g class="st12">
		<path d="M645.8,161.7c-0.1,1.5-0.4,2.6-0.9,3.4c-0.6,0.8-1.4,1.2-2.4,1.2c-1.1,0-1.9-0.4-2.4-1.3c-0.6-0.9-0.9-2.1-0.9-3.8
			c0-1.6,0.3-2.9,0.9-3.8c0.6-0.9,1.4-1.3,2.4-1.3c1,0,1.8,0.4,2.3,1.2c0.6,0.8,0.9,1.9,0.9,3.4h1.8v-5.3h1.2v14.3h-1.2v-8H645.8z
			 M642.5,157.2c-0.7,0-1.2,0.3-1.6,1c-0.4,0.7-0.6,1.7-0.6,3c0,1.3,0.2,2.3,0.6,3c0.4,0.7,0.9,1,1.6,1c0.7,0,1.2-0.3,1.6-1
			c0.4-0.7,0.6-1.7,0.6-3c0-1.3-0.2-2.3-0.6-3C643.8,157.5,643.2,157.2,642.5,157.2z M650.3,170.1v-15.1h1.2v15.1H650.3z"/>
		<path d="M663,166.3c-0.8-0.6-1.6-1.5-2.4-2.4s-1.2-1.8-1.4-2.5c-0.2,0.8-0.7,1.7-1.4,2.7s-1.5,1.8-2.3,2.5l-0.9-0.8
			c1.2-0.8,2.2-1.9,3-3.2s1.1-2.6,1.1-4v-2.5h1.2v2.4c0,1.3,0.4,2.6,1.1,3.8c0.7,1.2,1.7,2.3,2.9,3.1L663,166.3z M666,170.1v-9.1
			h-3.5v-1h3.5v-4.9h1.2v15.1H666z"/>
	</g>
</g>
<g>
	<defs>
		<rect id="SVGID_25_" x="-56" y="-6" width="960" height="540"/>
	</defs>
	<clipPath id="SVGID_26_">
		<use xlink:href="#SVGID_25_"  style="overflow:visible;"/>
	</clipPath>
	<g class="st13">
		<path d="M506.3,178.1v-1h3.3v-2.3h1.2v2.3h3.3v1H506.3z M510.3,185.7c-0.9,0-1.7-0.3-2.4-0.9c-0.6-0.6-1-1.4-1-2.4
			c0-1,0.3-1.7,1-2.4s1.4-0.9,2.4-0.9c0.9,0,1.7,0.3,2.4,0.9c0.6,0.6,1,1.4,1,2.4c0,1-0.3,1.8-1,2.4S511.2,185.7,510.3,185.7z
			 M510.3,180.1c-0.7,0-1.2,0.2-1.6,0.6s-0.6,1-0.6,1.6c0,0.7,0.2,1.2,0.6,1.6c0.4,0.4,1,0.6,1.6,0.6c0.6,0,1.2-0.2,1.6-0.6
			s0.6-1,0.6-1.6c0-0.7-0.2-1.2-0.6-1.6S510.9,180.1,510.3,180.1z M518,189.4v-7.1h-1.8v6.6h-1.1v-14.3h1.1v6.6h1.8v-6.9h1.2v15H518
			z"/>
		<path d="M531.2,181.6c-1.6,0.1-4.3,0.2-7.9,0.2v-6.5h7.2v1h-6v4.5c3.1,0,5.4,0,6.7-0.1L531.2,181.6z M529.4,189.2
			c-1.6,0-2.8-0.3-3.6-0.8s-1.3-1.2-1.3-2.1c0-0.9,0.4-1.5,1.3-2.1c0.8-0.5,2.1-0.8,3.6-0.8s2.8,0.3,3.6,0.8
			c0.8,0.5,1.3,1.2,1.3,2.1c0,0.9-0.4,1.6-1.3,2.1C532.1,188.9,530.9,189.2,529.4,189.2z M529.4,184.4c-1.2,0-2.1,0.2-2.7,0.5
			c-0.6,0.3-0.9,0.8-0.9,1.4c0,0.6,0.3,1,0.9,1.4c0.6,0.3,1.5,0.5,2.7,0.5c1.2,0,2.1-0.2,2.7-0.5c0.6-0.3,0.9-0.8,0.9-1.4
			c0-0.6-0.3-1-0.9-1.4S530.6,184.4,529.4,184.4z M534,179.5v3.6h-1.2v-8.7h1.2v4.1h2.3v1.1H534z"/>
	</g>
</g>
<g>
	<defs>
		<rect id="SVGID_27_" x="-56" y="-6" width="960" height="540"/>
	</defs>
	<clipPath id="SVGID_28_">
		<use xlink:href="#SVGID_27_"  style="overflow:visible;"/>
	</clipPath>
	<g class="st14">
		<path d="M549,182.5c-1.1,0-2.1-0.4-2.8-1.1c-0.8-0.7-1.1-1.6-1.1-2.8c0-1.1,0.4-2.1,1.1-2.8c0.8-0.7,1.7-1.1,2.8-1.1
			c1.1,0,2.1,0.4,2.8,1.1c0.7,0.7,1.1,1.6,1.1,2.8c0,1.1-0.4,2-1.1,2.8C551.1,182.2,550.1,182.5,549,182.5z M549,176
			c-0.8,0-1.5,0.3-2,0.8c-0.5,0.5-0.8,1.2-0.8,2c0,0.8,0.3,1.5,0.8,2c0.5,0.5,1.2,0.8,2,0.8c0.8,0,1.5-0.3,2-0.8
			c0.5-0.5,0.8-1.2,0.8-2c0-0.8-0.3-1.5-0.8-2C550.5,176.2,549.8,176,549,176z M547,188.8v-4.9h1.2v3.8h8.7v1.1H547z M555.3,185.3
			v-11h1.2v11H555.3z"/>
		<path d="M562.4,180.9v3.7h1.8c2.3,0,4-0.1,5-0.2l0.1,1c-0.8,0.1-1.7,0.2-2.6,0.2s-2.7,0-5.5,0v-10.1h7.2v1.1h-6v3.3h4.4v1H562.4z
			 M571.1,189.4v-7.7h-3v-1h3v-6.3h1.2v15H571.1z"/>
		<path d="M585,181.6c-0.8,0.1-1.6,0.2-2.4,0.2s-2.6,0.1-5.2,0.1v-4.1h5.1v-1.9h-5.1v-1h6.3v3.9h-5.1v2c3.5,0,5.6-0.1,6.3-0.3
			L585,181.6z M579.1,189v-5.7h1.1v1.9h6.9v-1.9h1.2v5.7H579.1z M587.2,186.2h-6.9v1.8h6.9V186.2z M587.2,182.4V179h-2.8v-1h2.8
			v-3.6h1.2v8.1H587.2z"/>
		<path d="M591.8,187v-1h14v1H591.8z M603.6,176.8h-8.4v2.2h8v1h-8v2.1h8.6v1h-9.8v-7.3h9.5V176.8z"/>
		<path d="M607.9,186.6l-0.1-1c1.3,0,3.2,0,5.6-0.1c2.4-0.1,4-0.1,4.8-0.2l0.1,1c-0.8,0.1-2.4,0.1-4.8,0.2
			C611.1,186.6,609.2,186.6,607.9,186.6z M612.9,182.7c-1.1,0-2.1-0.3-2.8-1s-1.1-1.5-1.1-2.6c0-1,0.4-1.9,1.1-2.5
			c0.8-0.7,1.7-1,2.8-1c1.1,0,2.1,0.3,2.8,1s1.1,1.5,1.1,2.5c0,1-0.4,1.9-1.1,2.6C615,182.3,614,182.7,612.9,182.7z M612.9,176.5
			c-0.8,0-1.4,0.2-2,0.7c-0.5,0.5-0.8,1.1-0.8,1.8c0,0.8,0.3,1.4,0.8,1.8c0.5,0.5,1.2,0.7,2,0.7c0.8,0,1.4-0.2,2-0.7
			c0.5-0.5,0.8-1.1,0.8-1.8s-0.3-1.4-0.8-1.8C614.3,176.8,613.7,176.5,612.9,176.5z M619.3,189.4v-15h1.2v15H619.3z"/>
	</g>
</g>
<g>
	<defs>
		<rect id="SVGID_29_" x="-56" y="-6" width="960" height="540"/>
	</defs>
	<clipPath id="SVGID_30_">
		<use xlink:href="#SVGID_29_"  style="overflow:visible;"/>
	</clipPath>
	<g class="st15">
		<path d="M493.5,207.2h-1.3v-11.5h1.3V207.2z"/>
		<path d="M503.1,207.2h-1.2v-4.7c0-1.8-0.6-2.7-1.9-2.7c-0.7,0-1.2,0.3-1.7,0.8c-0.4,0.5-0.7,1.1-0.7,1.9v4.7h-1.2V199h1.2v1.4h0
			c0.6-1,1.5-1.6,2.7-1.6c0.9,0,1.6,0.3,2.1,0.9s0.7,1.4,0.7,2.5V207.2z"/>
		<path d="M509.3,207.1c-0.3,0.2-0.7,0.3-1.2,0.3c-1.4,0-2.1-0.8-2.1-2.4V200h-1.4V199h1.4v-2l1.2-0.4v2.4h2.1v1.1h-2.1v4.7
			c0,0.6,0.1,1,0.3,1.2c0.2,0.2,0.5,0.3,0.9,0.3c0.3,0,0.6-0.1,0.8-0.3V207.1z"/>
		<path d="M517.6,203.4h-5.8c0,0.9,0.3,1.7,0.8,2.2c0.5,0.5,1.1,0.8,1.9,0.8c0.9,0,1.8-0.3,2.6-0.9v1.2c-0.7,0.5-1.7,0.8-2.8,0.8
			c-1.2,0-2.1-0.4-2.7-1.1c-0.7-0.8-1-1.8-1-3.1c0-1.2,0.4-2.3,1.1-3.1s1.6-1.2,2.7-1.2c1.1,0,1.9,0.3,2.5,1
			c0.6,0.7,0.9,1.7,0.9,2.9V203.4z M516.3,202.3c0-0.8-0.2-1.4-0.5-1.8c-0.4-0.4-0.9-0.6-1.5-0.6c-0.6,0-1.2,0.2-1.6,0.7
			c-0.4,0.4-0.7,1-0.8,1.8H516.3z"/>
		<path d="M523.8,200.3c-0.2-0.2-0.6-0.3-1-0.3c-0.6,0-1,0.3-1.4,0.8c-0.4,0.5-0.6,1.3-0.6,2.2v4.2h-1.2V199h1.2v1.7h0
			c0.2-0.6,0.5-1,0.9-1.4s0.8-0.5,1.3-0.5c0.3,0,0.6,0,0.8,0.1V200.3z"/>
		<path d="M529.4,200.3c-0.2-0.2-0.6-0.3-1-0.3c-0.6,0-1,0.3-1.4,0.8c-0.4,0.5-0.6,1.3-0.6,2.2v4.2h-1.2V199h1.2v1.7h0
			c0.2-0.6,0.5-1,0.9-1.4s0.8-0.5,1.3-0.5c0.3,0,0.6,0,0.8,0.1V200.3z"/>
		<path d="M537.4,207.2h-1.2v-1.3h0c-0.5,1-1.4,1.5-2.5,1.5c-2,0-2.9-1.2-2.9-3.5V199h1.2v4.7c0,1.8,0.7,2.6,2,2.6
			c0.7,0,1.2-0.2,1.6-0.7c0.4-0.5,0.6-1.1,0.6-1.9V199h1.2V207.2z"/>
		<path d="M541.3,206v5h-1.2v-12h1.2v1.4h0c0.6-1.1,1.6-1.6,2.8-1.6c1,0,1.9,0.4,2.5,1.1c0.6,0.7,0.9,1.7,0.9,2.9
			c0,1.4-0.3,2.5-1,3.3c-0.7,0.8-1.6,1.2-2.7,1.2C542.8,207.4,542,206.9,541.3,206L541.3,206z M541.3,203.9c0,0.7,0.2,1.3,0.7,1.7
			c0.5,0.5,1,0.7,1.7,0.7c0.8,0,1.4-0.3,1.9-0.9c0.5-0.6,0.7-1.5,0.7-2.6c0-0.9-0.2-1.6-0.7-2.2c-0.4-0.5-1-0.8-1.7-0.8
			c-0.8,0-1.4,0.3-1.9,0.8c-0.5,0.5-0.7,1.2-0.7,2V203.9z"/>
		<path d="M553.4,207.1c-0.3,0.2-0.7,0.3-1.2,0.3c-1.4,0-2.1-0.8-2.1-2.4V200h-1.4V199h1.4v-2l1.2-0.4v2.4h2.1v1.1h-2.1v4.7
			c0,0.6,0.1,1,0.3,1.2c0.2,0.2,0.5,0.3,0.9,0.3c0.3,0,0.6-0.1,0.8-0.3V207.1z"/>
		<path d="M569.6,195.7l-4.3,11.5h-1.4l-4.2-11.5h1.4l3.2,9.2c0.1,0.3,0.2,0.6,0.2,1h0c0-0.3,0.1-0.7,0.3-1l3.3-9.2H569.6z"/>
		<path d="M576.5,203.4h-5.8c0,0.9,0.3,1.7,0.8,2.2c0.5,0.5,1.1,0.8,1.9,0.8c0.9,0,1.8-0.3,2.6-0.9v1.2c-0.7,0.5-1.7,0.8-2.8,0.8
			c-1.2,0-2.1-0.4-2.7-1.1c-0.7-0.8-1-1.8-1-3.1c0-1.2,0.4-2.3,1.1-3.1s1.6-1.2,2.7-1.2c1.1,0,1.9,0.3,2.5,1
			c0.6,0.7,0.9,1.7,0.9,2.9V203.4z M575.2,202.3c0-0.8-0.2-1.4-0.5-1.8c-0.4-0.4-0.9-0.6-1.5-0.6c-0.6,0-1.2,0.2-1.6,0.7
			c-0.4,0.4-0.7,1-0.8,1.8H575.2z"/>
		<path d="M584,206.8c-0.6,0.4-1.4,0.6-2.2,0.6c-1.1,0-2.1-0.4-2.8-1.1c-0.7-0.7-1.1-1.7-1.1-3c0-1.4,0.4-2.4,1.1-3.3
			s1.8-1.2,3.1-1.2c0.7,0,1.3,0.1,1.9,0.4v1.3c-0.6-0.4-1.3-0.6-2-0.6c-0.8,0-1.5,0.3-2.1,0.9c-0.5,0.6-0.8,1.4-0.8,2.4
			c0,1,0.3,1.7,0.8,2.3c0.5,0.6,1.2,0.9,2.1,0.9c0.7,0,1.4-0.2,2-0.7V206.8z"/>
		<path d="M589.7,207.1c-0.3,0.2-0.7,0.3-1.2,0.3c-1.4,0-2.1-0.8-2.1-2.4V200H585V199h1.4v-2l1.2-0.4v2.4h2.1v1.1h-2.1v4.7
			c0,0.6,0.1,1,0.3,1.2c0.2,0.2,0.5,0.3,0.9,0.3c0.3,0,0.6-0.1,0.8-0.3V207.1z"/>
		<path d="M590.9,203.2c0-1.4,0.4-2.4,1.1-3.2s1.8-1.2,3-1.2c1.2,0,2.1,0.4,2.8,1.1c0.7,0.8,1,1.8,1,3.1c0,1.3-0.4,2.3-1.1,3.1
			s-1.7,1.2-2.9,1.2c-1.2,0-2.1-0.4-2.9-1.2C591.2,205.4,590.9,204.4,590.9,203.2z M592.1,203.1c0,1,0.3,1.7,0.8,2.3s1.2,0.9,2,0.9
			c0.9,0,1.5-0.3,2-0.8c0.5-0.6,0.7-1.4,0.7-2.4c0-1-0.2-1.8-0.7-2.4c-0.5-0.6-1.1-0.9-2-0.9c-0.8,0-1.5,0.3-2,0.9
			C592.4,201.3,592.1,202.1,592.1,203.1z"/>
		<path d="M605.2,200.3c-0.2-0.2-0.6-0.3-1-0.3c-0.6,0-1,0.3-1.4,0.8c-0.4,0.5-0.6,1.3-0.6,2.2v4.2H601V199h1.2v1.7h0
			c0.2-0.6,0.5-1,0.9-1.4s0.8-0.5,1.3-0.5c0.3,0,0.6,0,0.8,0.1V200.3z"/>
	</g>
</g>
<g>
	<defs>
		<rect id="SVGID_31_" x="-56" y="-6" width="960" height="540"/>
	</defs>
	<clipPath id="SVGID_32_">
		<use xlink:href="#SVGID_31_"  style="overflow:visible;"/>
	</clipPath>
	<g class="st16">
		<path d="M614.4,198.1v1.8c3.1,0,5.3-0.1,6.4-0.2l0.1,1c-1.7,0.1-4.3,0.2-7.7,0.2v-6.7h7.1v1.1h-6v1.8h5.2v1H614.4z M614.8,208.2
			v-5.5h9.2v5.5H614.8z M622.8,203.7h-6.9v3.4h6.9V203.7z M623.9,198.4v3.5h-1.2v-8.3h1.2v3.8h2.3v1H623.9z"/>
		<path d="M635.1,201.2c-0.6-0.3-1.2-0.8-1.8-1.5c-0.6-0.7-1-1.3-1.2-1.8c-0.2,0.6-0.6,1.2-1.2,2c-0.6,0.7-1.2,1.3-1.9,1.7l-0.8-0.8
			c1-0.5,1.8-1.2,2.4-2.2s0.9-1.9,0.9-3v-1.6h1.1v1.6c0,1,0.3,1.9,0.9,2.7c0.6,0.9,1.4,1.5,2.2,1.9L635.1,201.2z M639.7,208.6v-4.7
			H631v-1h9.8v5.7H639.7z M639.7,202v-3.4h-1.8v3.4h-1.2v-8.2h1.2v3.7h1.8v-4h1.2v8.5H639.7z"/>
	</g>
</g>
<path d="M445.6,208l-3.4,6.8l-3.4-6.8H445.6z M443.3,116.6v92.6H441v-92.6H443.3z"/>
<rect x="424.3" y="96.4" class="st1" width="35.8" height="20.2"/>
<rect x="402" y="250" class="st1" width="89.6" height="52.8"/>
<g>
	<defs>
		<rect id="SVGID_33_" x="-56" y="-6" width="960" height="540"/>
	</defs>
	<clipPath id="SVGID_34_">
		<use xlink:href="#SVGID_33_"  style="overflow:visible;"/>
	</clipPath>
	<g class="st17">
		<path d="M385.4,238h-1.4V225h1.4V238z"/>
		<path d="M396.2,238h-1.4v-5.3c0-2-0.7-3-2.2-3c-0.8,0-1.4,0.3-1.9,0.8s-0.7,1.3-0.7,2.2v5.3h-1.4v-9.2h1.4v1.5h0
			c0.7-1.2,1.7-1.8,3-1.8c1,0,1.8,0.3,2.3,1s0.8,1.6,0.8,2.8V238z"/>
		<path d="M403.2,237.9c-0.4,0.2-0.8,0.3-1.3,0.3c-1.6,0-2.4-0.9-2.4-2.7v-5.6h-1.6v-1.2h1.6v-2.3l1.4-0.4v2.7h2.3v1.2h-2.3v5.3
			c0,0.7,0.1,1.1,0.3,1.4s0.6,0.4,1.1,0.4c0.4,0,0.7-0.1,1-0.3V237.9z"/>
		<path d="M412.6,233.7H406c0,1.1,0.3,1.9,0.9,2.4s1.3,0.8,2.2,0.8c1.1,0,2-0.3,2.9-1v1.3c-0.8,0.6-1.9,0.9-3.2,0.9
			c-1.3,0-2.3-0.4-3.1-1.3s-1.1-2-1.1-3.5c0-1.4,0.4-2.6,1.2-3.5s1.8-1.4,3-1.4s2.1,0.4,2.8,1.2s1,1.9,1,3.2V233.7z M411.1,232.5
			c0-0.9-0.2-1.5-0.6-2s-1-0.7-1.7-0.7c-0.7,0-1.3,0.3-1.8,0.8s-0.8,1.2-0.9,2H411.1z"/>
		<path d="M419.6,230.2c-0.3-0.2-0.6-0.3-1.1-0.3c-0.6,0-1.2,0.3-1.6,0.9s-0.6,1.4-0.6,2.5v4.7h-1.4v-9.2h1.4v1.9h0
			c0.2-0.7,0.5-1.2,1-1.5s0.9-0.5,1.4-0.5c0.4,0,0.7,0,0.9,0.1V230.2z"/>
		<path d="M425.9,230.2c-0.3-0.2-0.6-0.3-1.1-0.3c-0.6,0-1.2,0.3-1.6,0.9s-0.6,1.4-0.6,2.5v4.7h-1.4v-9.2h1.4v1.9h0
			c0.2-0.7,0.5-1.2,1-1.5c0.4-0.4,0.9-0.5,1.4-0.5c0.4,0,0.7,0,0.9,0.1V230.2z"/>
		<path d="M434.9,238h-1.4v-1.5h0c-0.6,1.1-1.6,1.7-2.8,1.7c-2.2,0-3.3-1.3-3.3-3.9v-5.5h1.4v5.3c0,2,0.8,3,2.3,3
			c0.7,0,1.3-0.3,1.8-0.8s0.7-1.3,0.7-2.1v-5.3h1.4V238z"/>
		<path d="M439.3,236.6v5.6h-1.4v-13.5h1.4v1.6h0c0.7-1.2,1.8-1.8,3.2-1.8c1.2,0,2.1,0.4,2.8,1.2s1,1.9,1,3.3c0,1.6-0.4,2.8-1.1,3.7
			c-0.8,0.9-1.8,1.4-3.1,1.4C440.9,238.2,440,237.7,439.3,236.6L439.3,236.6z M439.3,234.2c0,0.8,0.3,1.4,0.8,2s1.2,0.8,1.9,0.8
			c0.9,0,1.6-0.3,2.1-1c0.5-0.7,0.8-1.7,0.8-2.9c0-1-0.2-1.8-0.7-2.4c-0.5-0.6-1.1-0.9-2-0.9c-0.8,0-1.5,0.3-2.1,0.9
			s-0.8,1.4-0.8,2.3V234.2z"/>
		<path d="M452.9,237.9c-0.4,0.2-0.8,0.3-1.3,0.3c-1.6,0-2.4-0.9-2.4-2.7v-5.6h-1.6v-1.2h1.6v-2.3l1.4-0.4v2.7h2.3v1.2h-2.3v5.3
			c0,0.7,0.1,1.1,0.3,1.4s0.6,0.4,1.1,0.4c0.4,0,0.7-0.1,1-0.3V237.9z"/>
	</g>
</g>
<g>
	<defs>
		<rect id="SVGID_35_" x="-56" y="-6" width="960" height="540"/>
	</defs>
	<clipPath id="SVGID_36_">
		<use xlink:href="#SVGID_35_"  style="overflow:visible;"/>
	</clipPath>
	<g class="st18">
		<path d="M471,225l-4.8,12.9h-1.6l-4.7-12.9h1.6l3.6,10.3c0.1,0.3,0.2,0.7,0.3,1.1h0c0-0.4,0.1-0.7,0.3-1.2l3.7-10.3H471z"/>
		<path d="M478.8,233.7h-6.5c0,1.1,0.3,1.9,0.9,2.4s1.3,0.8,2.2,0.8c1.1,0,2-0.3,2.9-1v1.3c-0.8,0.6-1.9,0.9-3.2,0.9
			c-1.3,0-2.3-0.4-3.1-1.3s-1.1-2-1.1-3.5c0-1.4,0.4-2.6,1.2-3.5s1.8-1.4,3-1.4s2.1,0.4,2.8,1.2c0.7,0.8,1,1.9,1,3.2V233.7z
			 M477.4,232.5c0-0.9-0.2-1.5-0.6-2c-0.4-0.5-1-0.7-1.7-0.7c-0.7,0-1.3,0.3-1.8,0.8s-0.8,1.2-0.9,2H477.4z"/>
		<path d="M487.4,237.5c-0.7,0.4-1.6,0.7-2.5,0.7c-1.3,0-2.3-0.4-3.2-1.3s-1.2-2-1.2-3.4c0-1.5,0.4-2.8,1.3-3.7s2-1.4,3.5-1.4
			c0.8,0,1.5,0.1,2.1,0.4v1.5c-0.7-0.5-1.4-0.7-2.2-0.7c-0.9,0-1.7,0.3-2.3,1c-0.6,0.7-0.9,1.6-0.9,2.7c0,1.1,0.3,1.9,0.8,2.6
			s1.3,1,2.3,1c0.8,0,1.6-0.3,2.3-0.8V237.5z"/>
		<path d="M493.8,237.9c-0.4,0.2-0.8,0.3-1.3,0.3c-1.6,0-2.4-0.9-2.4-2.7v-5.6h-1.6v-1.2h1.6v-2.3l1.4-0.4v2.7h2.3v1.2h-2.3v5.3
			c0,0.7,0.1,1.1,0.3,1.4s0.6,0.4,1.1,0.4c0.4,0,0.7-0.1,1-0.3V237.9z"/>
		<path d="M495.1,233.5c0-1.5,0.4-2.7,1.3-3.6c0.8-0.9,2-1.3,3.4-1.3c1.3,0,2.4,0.4,3.2,1.3c0.8,0.8,1.2,2,1.2,3.5
			c0,1.5-0.4,2.6-1.3,3.5s-1.9,1.3-3.3,1.3c-1.3,0-2.4-0.4-3.2-1.3S495.1,234.9,495.1,233.5z M496.5,233.4c0,1.1,0.3,2,0.9,2.6
			c0.6,0.7,1.3,1,2.3,1c1,0,1.7-0.3,2.3-0.9s0.8-1.5,0.8-2.7c0-1.2-0.3-2.1-0.8-2.7s-1.3-1-2.3-1c-1,0-1.7,0.3-2.3,1
			S496.5,232.3,496.5,233.4z"/>
	</g>
</g>
<g>
	<defs>
		<rect id="SVGID_37_" x="-56" y="-6" width="960" height="540"/>
	</defs>
	<clipPath id="SVGID_38_">
		<use xlink:href="#SVGID_37_"  style="overflow:visible;"/>
	</clipPath>
	<g class="st19">
		<path d="M511.3,230.2c-0.3-0.2-0.6-0.3-1.1-0.3c-0.6,0-1.2,0.3-1.6,0.9s-0.6,1.4-0.6,2.5v4.7h-1.4v-9.2h1.4v1.9h0
			c0.2-0.7,0.5-1.2,1-1.5c0.4-0.4,0.9-0.5,1.4-0.5c0.4,0,0.7,0,0.9,0.1V230.2z"/>
	</g>
</g>
<g>
	<defs>
		<rect id="SVGID_39_" x="-56" y="-6" width="960" height="540"/>
	</defs>
	<clipPath id="SVGID_40_">
		<use xlink:href="#SVGID_39_"  style="overflow:visible;"/>
	</clipPath>
	<g class="st20">
		<path d="M496,314.8c1.9,0,3.6,0.7,4.9,2c1.3,1.3,2,3,2,5c0,2-0.7,3.6-2,5s-3,2-4.9,2c-2,0-3.6-0.7-5-2s-2-3-2-5c0-2,0.7-3.6,2-5
			C492.5,315.4,494.1,314.8,496,314.8z M496,328.2c1.8,0,3.3-0.6,4.5-1.9c1.2-1.2,1.8-2.7,1.8-4.5c0-1.8-0.6-3.3-1.8-4.6
			c-1.2-1.2-2.7-1.8-4.5-1.8c-1.8,0-3.3,0.6-4.5,1.8c-1.2,1.2-1.8,2.7-1.8,4.6c0,1.8,0.6,3.3,1.8,4.6S494.2,328.2,496,328.2z
			 M493.5,325.5v-1.1c0.7,0.4,1.3,0.6,2,0.6c0.6,0,1.1-0.1,1.5-0.4s0.5-0.7,0.5-1.2c0-0.5-0.2-0.9-0.6-1.2c-0.4-0.3-1-0.4-1.8-0.4
			h-0.8V321h0.7c0.7,0,1.3-0.1,1.6-0.4c0.4-0.3,0.6-0.6,0.6-1.1c0-0.4-0.1-0.7-0.4-1s-0.7-0.4-1.2-0.4c-0.6,0-1.2,0.2-1.8,0.5v-1
			c0.7-0.3,1.4-0.4,2-0.4c0.8,0,1.4,0.2,1.8,0.6s0.7,0.9,0.7,1.5c0,1-0.5,1.7-1.4,2.1c1.1,0.3,1.7,1,1.7,2.1c0,0.8-0.3,1.4-0.8,1.9
			s-1.3,0.7-2.2,0.7C494.8,326,494.1,325.8,493.5,325.5z"/>
	</g>
</g>
<g>
	<defs>
		<rect id="SVGID_41_" x="-56" y="-6" width="960" height="540"/>
	</defs>
	<clipPath id="SVGID_42_">
		<use xlink:href="#SVGID_41_"  style="overflow:visible;"/>
	</clipPath>
	<g class="st21">
		<path d="M512.4,326.3h-1.3v-11.5h1.3V326.3z"/>
		<path d="M522,326.3h-1.2v-4.7c0-1.8-0.6-2.7-1.9-2.7c-0.7,0-1.2,0.3-1.7,0.8c-0.4,0.5-0.7,1.1-0.7,1.9v4.7h-1.2v-8.2h1.2v1.4h0
			c0.6-1,1.5-1.6,2.7-1.6c0.9,0,1.6,0.3,2.1,0.9c0.5,0.6,0.7,1.4,0.7,2.5V326.3z"/>
		<path d="M528.2,326.3c-0.3,0.2-0.7,0.3-1.2,0.3c-1.4,0-2.1-0.8-2.1-2.4v-4.9h-1.4v-1.1h1.4v-2l1.2-0.4v2.4h2.1v1.1h-2.1v4.7
			c0,0.6,0.1,1,0.3,1.2c0.2,0.2,0.5,0.3,0.9,0.3c0.3,0,0.6-0.1,0.8-0.3V326.3z"/>
		<path d="M536.5,322.6h-5.8c0,0.9,0.3,1.7,0.8,2.2c0.5,0.5,1.1,0.8,1.9,0.8c0.9,0,1.8-0.3,2.6-0.9v1.2c-0.7,0.5-1.7,0.8-2.8,0.8
			c-1.2,0-2.1-0.4-2.7-1.1c-0.7-0.8-1-1.8-1-3.1c0-1.2,0.4-2.3,1.1-3.1c0.7-0.8,1.6-1.2,2.7-1.2c1.1,0,1.9,0.3,2.5,1
			c0.6,0.7,0.9,1.7,0.9,2.9V322.6z M535.2,321.5c0-0.8-0.2-1.4-0.5-1.8c-0.4-0.4-0.9-0.6-1.5-0.6c-0.6,0-1.2,0.2-1.6,0.7
			c-0.4,0.4-0.7,1-0.8,1.8H535.2z"/>
		<path d="M542.7,319.4c-0.2-0.2-0.6-0.3-1-0.3c-0.6,0-1,0.3-1.4,0.8c-0.4,0.5-0.6,1.3-0.6,2.2v4.2h-1.2v-8.2h1.2v1.7h0
			c0.2-0.6,0.5-1,0.9-1.4c0.4-0.3,0.8-0.5,1.3-0.5c0.3,0,0.6,0,0.8,0.1V319.4z"/>
		<path d="M548.3,319.4c-0.2-0.2-0.6-0.3-1-0.3c-0.6,0-1,0.3-1.4,0.8c-0.4,0.5-0.6,1.3-0.6,2.2v4.2h-1.2v-8.2h1.2v1.7h0
			c0.2-0.6,0.5-1,0.9-1.4c0.4-0.3,0.8-0.5,1.3-0.5c0.3,0,0.6,0,0.8,0.1V319.4z"/>
		<path d="M556.3,326.3h-1.2v-1.3h0c-0.5,1-1.4,1.5-2.5,1.5c-2,0-2.9-1.2-2.9-3.5v-4.9h1.2v4.7c0,1.8,0.7,2.6,2,2.6
			c0.7,0,1.2-0.2,1.6-0.7c0.4-0.5,0.6-1.1,0.6-1.9v-4.7h1.2V326.3z"/>
		<path d="M560.3,325.1v5H559v-12h1.2v1.4h0c0.6-1.1,1.6-1.6,2.8-1.6c1,0,1.9,0.4,2.5,1.1c0.6,0.7,0.9,1.7,0.9,2.9
			c0,1.4-0.3,2.5-1,3.3s-1.6,1.2-2.7,1.2C561.7,326.5,560.9,326.1,560.3,325.1L560.3,325.1z M560.3,323c0,0.7,0.2,1.3,0.7,1.7
			c0.5,0.5,1,0.7,1.7,0.7c0.8,0,1.4-0.3,1.9-0.9c0.5-0.6,0.7-1.5,0.7-2.6c0-0.9-0.2-1.6-0.7-2.2s-1-0.8-1.7-0.8
			c-0.8,0-1.4,0.3-1.9,0.8c-0.5,0.5-0.7,1.2-0.7,2V323z"/>
		<path d="M572.3,326.3c-0.3,0.2-0.7,0.3-1.2,0.3c-1.4,0-2.1-0.8-2.1-2.4v-4.9h-1.4v-1.1h1.4v-2l1.2-0.4v2.4h2.1v1.1h-2.1v4.7
			c0,0.6,0.1,1,0.3,1.2c0.2,0.2,0.5,0.3,0.9,0.3c0.3,0,0.6-0.1,0.8-0.3V326.3z"/>
		<path d="M588.6,314.9l-4.3,11.5h-1.4l-4.2-11.5h1.4l3.2,9.2c0.1,0.3,0.2,0.6,0.2,1h0c0-0.3,0.1-0.7,0.3-1l3.3-9.2H588.6z"/>
		<path d="M595.5,322.6h-5.8c0,0.9,0.3,1.7,0.8,2.2c0.5,0.5,1.1,0.8,1.9,0.8c0.9,0,1.8-0.3,2.6-0.9v1.2c-0.7,0.5-1.7,0.8-2.8,0.8
			c-1.2,0-2.1-0.4-2.7-1.1c-0.7-0.8-1-1.8-1-3.1c0-1.2,0.4-2.3,1.1-3.1c0.7-0.8,1.6-1.2,2.7-1.2c1.1,0,1.9,0.3,2.5,1
			c0.6,0.7,0.9,1.7,0.9,2.9V322.6z M594.2,321.5c0-0.8-0.2-1.4-0.5-1.8c-0.4-0.4-0.9-0.6-1.5-0.6c-0.6,0-1.2,0.2-1.6,0.7
			c-0.4,0.4-0.7,1-0.8,1.8H594.2z"/>
		<path d="M603,326c-0.6,0.4-1.4,0.6-2.2,0.6c-1.1,0-2.1-0.4-2.8-1.1c-0.7-0.7-1.1-1.7-1.1-3c0-1.4,0.4-2.4,1.1-3.3
			c0.8-0.8,1.8-1.2,3.1-1.2c0.7,0,1.3,0.1,1.9,0.4v1.3c-0.6-0.4-1.3-0.6-2-0.6c-0.8,0-1.5,0.3-2.1,0.9c-0.5,0.6-0.8,1.4-0.8,2.4
			c0,1,0.3,1.7,0.8,2.3c0.5,0.6,1.2,0.9,2.1,0.9c0.7,0,1.4-0.2,2-0.7V326z"/>
		<path d="M608.8,326.3c-0.3,0.2-0.7,0.3-1.2,0.3c-1.4,0-2.1-0.8-2.1-2.4v-4.9H604v-1.1h1.4v-2l1.2-0.4v2.4h2.1v1.1h-2.1v4.7
			c0,0.6,0.1,1,0.3,1.2c0.2,0.2,0.5,0.3,0.9,0.3c0.3,0,0.6-0.1,0.8-0.3V326.3z"/>
		<path d="M609.9,322.4c0-1.4,0.4-2.4,1.1-3.2c0.7-0.8,1.8-1.2,3-1.2c1.2,0,2.1,0.4,2.8,1.1c0.7,0.8,1,1.8,1,3.1
			c0,1.3-0.4,2.3-1.1,3.1s-1.7,1.2-2.9,1.2c-1.2,0-2.1-0.4-2.9-1.2C610.3,324.6,609.9,323.6,609.9,322.4z M611.2,322.3
			c0,1,0.3,1.7,0.8,2.3c0.5,0.6,1.2,0.9,2,0.9c0.9,0,1.5-0.3,2-0.8c0.5-0.6,0.7-1.4,0.7-2.4c0-1-0.2-1.8-0.7-2.4
			c-0.5-0.6-1.1-0.9-2-0.9c-0.8,0-1.5,0.3-2,0.9C611.4,320.5,611.2,321.3,611.2,322.3z"/>
		<path d="M624.3,319.4c-0.2-0.2-0.6-0.3-1-0.3c-0.6,0-1,0.3-1.4,0.8c-0.4,0.5-0.6,1.3-0.6,2.2v4.2h-1.2v-8.2h1.2v1.7h0
			c0.2-0.6,0.5-1,0.9-1.4c0.4-0.3,0.8-0.5,1.3-0.5c0.3,0,0.6,0,0.8,0.1V319.4z"/>
	</g>
</g>
<g>
	<defs>
		<rect id="SVGID_43_" x="-56" y="-6" width="960" height="540"/>
	</defs>
	<clipPath id="SVGID_44_">
		<use xlink:href="#SVGID_43_"  style="overflow:visible;"/>
	</clipPath>
	<g class="st22">
		<path d="M633.3,314.1c-0.1,4.3-2.4,7.6-6.8,10.1l-0.9-0.9c1.6-0.6,3-1.7,4.2-3.2c1.2-1.5,2-3.1,2.2-5h-5.8v-1H633.3z M637,320v7.8
			h-1.2v-15h1.2v6.2h2.7v1H637z"/>
	</g>
</g>
<g>
	<defs>
		<rect id="SVGID_45_" x="-56" y="-6" width="960" height="540"/>
	</defs>
	<clipPath id="SVGID_46_">
		<use xlink:href="#SVGID_45_"  style="overflow:visible;"/>
	</clipPath>
	<g class="st23">
		<path d="M655.1,314.1c-0.1,4.3-2.4,7.6-6.8,10.1l-0.9-0.9c1.6-0.6,3-1.7,4.2-3.2c1.2-1.5,2-3.1,2.2-5h-5.8v-1H655.1z M658.8,320
			v7.8h-1.2v-15h1.2v6.2h2.7v1H658.8z"/>
		<path d="M664.2,324.5v-6h5.7v-3.5h-5.7v-1h6.9v5.5h-5.7v3.9c3.8,0,6.2-0.1,7.2-0.3l0.1,1C671.4,324.4,668.6,324.5,664.2,324.5z
			 M674.2,327.8v-15h1.2v15H674.2z"/>
		<path d="M687.2,314.1c-0.1,4.3-2.4,7.6-6.8,10.2l-0.9-0.9c1-0.4,2-1,3-1.9c1-0.9,1.8-1.9,2.4-3l-5.1,0.5l-0.4-1.1l6-0.4
			c0.3-0.7,0.5-1.5,0.6-2.3h-5.8v-1H687.2z M690.2,327.8v-15h1.2v15H690.2z"/>
		<path d="M695,321.4v-1.1h14v1.1H695z M697.4,327.2v-4.5h1.2v3.4h8.3v1.1H697.4z M697.5,318.3v-5h1.2v4h8.2v1H697.5z"/>
	</g>
</g>
<g>
	<defs>
		<rect id="SVGID_47_" x="-56" y="-6" width="960" height="540"/>
	</defs>
	<clipPath id="SVGID_48_">
		<use xlink:href="#SVGID_47_"  style="overflow:visible;"/>
	</clipPath>
	<g class="st24">
		<path d="M517.9,345.5h-1.3v-11.5h1.3V345.5z"/>
		<path d="M520.5,343.6c0.4,0.3,0.8,0.6,1.4,0.7c0.6,0.2,1.1,0.3,1.7,0.3c1.7,0,2.5-0.6,2.5-1.8c0-0.3-0.1-0.7-0.3-0.9
			c-0.2-0.3-0.4-0.5-0.7-0.7c-0.3-0.2-0.9-0.5-1.8-1c-1.1-0.6-1.8-1.1-2.2-1.5s-0.6-1-0.6-1.8c0-0.9,0.4-1.7,1.1-2.2
			c0.8-0.5,1.7-0.8,2.8-0.8c1.1,0,1.9,0.1,2.4,0.4v1.5c-0.7-0.5-1.5-0.7-2.6-0.7c-0.7,0-1.3,0.2-1.8,0.5c-0.5,0.3-0.7,0.7-0.7,1.3
			c0,0.5,0.2,0.9,0.5,1.2c0.3,0.3,1,0.7,2,1.2c1.2,0.6,2,1.2,2.4,1.7c0.4,0.5,0.6,1.1,0.6,1.7c0,1-0.4,1.8-1.1,2.3
			c-0.7,0.5-1.7,0.8-3,0.8c-0.4,0-0.9-0.1-1.5-0.2c-0.6-0.1-1-0.3-1.3-0.5V343.6z"/>
		<path d="M537.8,345.5h-1.5l-1.9-3.2c-0.4-0.7-0.8-1.1-1.1-1.4c-0.3-0.2-0.7-0.3-1.2-0.3h-1.1v4.9h-1.3v-11.5h3.4
			c1.1,0,1.9,0.3,2.5,0.8c0.6,0.5,0.9,1.3,0.9,2.2c0,1.6-0.8,2.6-2.5,3.1v0c0.3,0.1,0.6,0.3,0.8,0.6s0.5,0.7,0.9,1.3L537.8,345.5z
			 M530.9,335.2v4.2h1.9c0.7,0,1.3-0.2,1.7-0.6c0.4-0.4,0.7-1,0.7-1.6c0-0.6-0.2-1.1-0.6-1.5s-1-0.5-1.7-0.5H530.9z"/>
	</g>
</g>
<g>
	<defs>
		<rect id="SVGID_49_" x="-56" y="-6" width="960" height="540"/>
	</defs>
	<clipPath id="SVGID_50_">
		<use xlink:href="#SVGID_49_"  style="overflow:visible;"/>
	</clipPath>
	<g class="st25">
		<path d="M539,344.2l-0.1-1c1.3,0,3.2,0,5.6-0.1c2.4-0.1,4-0.1,4.8-0.2l0.1,1c-0.8,0.1-2.4,0.1-4.8,0.2
			C542.1,344.2,540.3,344.2,539,344.2z M544,340.2c-1.1,0-2.1-0.3-2.8-1c-0.8-0.7-1.1-1.5-1.1-2.6c0-1,0.4-1.9,1.1-2.6
			c0.8-0.7,1.7-1,2.8-1c1.1,0,2.1,0.3,2.8,1c0.8,0.7,1.1,1.5,1.1,2.5c0,1-0.4,1.9-1.1,2.6C546.1,339.9,545.1,340.2,544,340.2z
			 M544,334.1c-0.8,0-1.5,0.2-2,0.7c-0.5,0.5-0.8,1.1-0.8,1.8c0,0.8,0.3,1.4,0.8,1.8c0.5,0.5,1.2,0.7,2,0.7c0.8,0,1.4-0.2,2-0.7
			c0.5-0.5,0.8-1.1,0.8-1.8c0-0.8-0.3-1.4-0.8-1.8C545.4,334.3,544.8,334.1,544,334.1z M550.4,347v-15.1h1.2V347H550.4z"/>
	</g>
</g>
<g>
	<defs>
		<rect id="SVGID_51_" x="-56" y="-6" width="960" height="540"/>
	</defs>
	<clipPath id="SVGID_52_">
		<use xlink:href="#SVGID_51_"  style="overflow:visible;"/>
	</clipPath>
	<g class="st26">
		<path d="M569.1,343.1c-0.8-0.6-1.6-1.5-2.4-2.4s-1.2-1.8-1.4-2.5c-0.2,0.8-0.7,1.7-1.4,2.7s-1.5,1.8-2.3,2.5l-0.9-0.8
			c1.2-0.8,2.2-1.9,3-3.2s1.1-2.6,1.1-4v-2.5h1.2v2.4c0,1.3,0.4,2.6,1.1,3.8c0.7,1.2,1.7,2.3,2.9,3.1L569.1,343.1z M572.1,347v-15.1
			h1.2V347H572.1z"/>
		<path d="M584.6,339.7c-1.7-0.9-2.8-2-3.5-3.4c-0.3,0.6-0.8,1.3-1.4,2.1c-0.7,0.7-1.4,1.3-2.2,1.7l-0.8-0.8
			c1.1-0.6,2.1-1.3,2.8-2.3s1.1-1.9,1.1-3v-0.4h-3.3v-1h7.8v1h-3.3v0.4c0,1,0.4,1.9,1.1,2.8c0.7,0.9,1.6,1.5,2.7,2L584.6,339.7z
			 M587.3,347v-4.5h-8.5v-1.1h9.7v5.5H587.3z M588.5,337.1v3.5h-1.2v-8.7h1.2v4.1h2.3v1.1H588.5z"/>
	</g>
</g>
<g>
	<defs>
		<rect id="SVGID_53_" x="-56" y="-6" width="960" height="540"/>
	</defs>
	<clipPath id="SVGID_54_">
		<use xlink:href="#SVGID_53_"  style="overflow:visible;"/>
	</clipPath>
	<g class="st27">
		<path d="M605.8,340.9v6.1h-1.2v-6.1h-6.4v-1h14v1H605.8z M611,338.1c-1.2-0.2-2.3-0.6-3.5-1.2c-1.1-0.7-1.9-1.3-2.3-2
			c-0.4,0.6-1.1,1.3-2.2,2s-2.3,1.1-3.5,1.3l-0.7-1c1.4-0.1,2.6-0.6,3.8-1.3c1.1-0.7,1.8-1.5,2-2.5h-4.8v-1h10.9v1h-4.8
			c0.2,0.9,0.8,1.7,2,2.4s2.4,1.1,3.8,1.3L611,338.1z"/>
		<path d="M614.2,344.6v-1h6.4v-3.7h1.2v3.7h6.4v1H614.2z M621.2,335.8c-0.4,0.8-1.1,1.6-2.2,2.4c-1.1,0.8-2.2,1.4-3.4,1.7l-0.8-0.9
			c1.8-0.4,3.2-1.1,4.2-2.2s1.6-2,1.6-2.9v-0.8h1.2v0.8c0,0.9,0.5,1.9,1.6,2.9c1.1,1,2.5,1.8,4.2,2.2l-0.8,0.9
			c-1.2-0.4-2.3-0.9-3.4-1.7C622.3,337.4,621.6,336.6,621.2,335.8z"/>
		<path d="M632.3,336.5h8.5v-2.2h-8.5v-1h9.7v4.3h-8.5v2.5h8.9v1h-4.7v2.7h6.4v1h-14v-1h6.4V341h-4.3V336.5z"/>
	</g>
</g>
<g>
	<defs>
		<rect id="SVGID_55_" x="-56" y="-6" width="960" height="540"/>
	</defs>
	<clipPath id="SVGID_56_">
		<use xlink:href="#SVGID_55_"  style="overflow:visible;"/>
	</clipPath>
	<g class="st28">
		<path d="M656.6,343.2c-1.1,0-2.1-0.5-2.8-1.4s-1.1-2.2-1.1-3.8c0-1.6,0.3-2.9,1-3.8c0.7-0.9,1.6-1.4,2.8-1.4
			c1.2,0,2.1,0.5,2.8,1.4c0.7,0.9,1.1,2.2,1.1,3.8c0,1.6-0.4,2.8-1.1,3.8C658.7,342.7,657.8,343.2,656.6,343.2z M656.6,333.9
			c-0.8,0-1.5,0.4-2,1.1c-0.5,0.7-0.7,1.7-0.7,3c0,1.2,0.3,2.2,0.8,3s1.2,1.1,1.9,1.1c0.8,0,1.4-0.4,1.9-1.1c0.5-0.8,0.8-1.7,0.8-3
			c0-1.2-0.2-2.2-0.7-3S657.4,333.9,656.6,333.9z M663.3,347v-15.1h1.2V347H663.3z"/>
		<path d="M667.9,340.3v-1h6.4v-2h-4.1v-5h9.3v1h-8.2v2.9h8.3v1h-4.3v2h6.4v1H667.9z M674.9,346.8c-1.6,0-2.8-0.3-3.6-0.8
			c-0.8-0.5-1.3-1.2-1.3-2c0-0.9,0.4-1.5,1.3-2c0.8-0.5,2.1-0.8,3.6-0.8c1.6,0,2.8,0.3,3.6,0.8c0.8,0.5,1.3,1.2,1.3,2
			c0,0.9-0.4,1.5-1.3,2C677.7,346.6,676.4,346.8,674.9,346.8z M674.9,342.3c-1.2,0-2.1,0.2-2.7,0.5c-0.6,0.3-0.9,0.8-0.9,1.3
			c0,0.6,0.3,1,0.9,1.3s1.5,0.5,2.7,0.5c1.2,0,2.1-0.2,2.7-0.5s0.9-0.8,0.9-1.3c0-0.6-0.3-1-0.9-1.3S676.1,342.3,674.9,342.3z"/>
	</g>
</g>
<path d="M450,346.3l-3.4,6.8l-3.4-6.8H450z M447.8,302.8v44.6h-2.3v-44.6H447.8z"/>
<rect x="401.9" y="390.7" class="st1" width="89.5" height="88.1"/>
<g>
	<defs>
		<rect id="SVGID_57_" x="-56" y="-6" width="960" height="540"/>
	</defs>
	<clipPath id="SVGID_58_">
		<use xlink:href="#SVGID_57_"  style="overflow:visible;"/>
	</clipPath>
	<g class="st29">
		<path d="M347.8,378.6h-1.4v-12.9h1.4V378.6z"/>
		<path d="M358.6,378.6h-1.4v-5.3c0-2-0.7-3-2.2-3c-0.8,0-1.4,0.3-1.9,0.8s-0.7,1.3-0.7,2.2v5.3H351v-9.2h1.4v1.5h0
			c0.7-1.2,1.7-1.8,3-1.8c1,0,1.8,0.3,2.3,1s0.8,1.6,0.8,2.8V378.6z"/>
		<path d="M365.6,378.5c-0.4,0.2-0.8,0.3-1.3,0.3c-1.6,0-2.4-0.9-2.4-2.7v-5.6h-1.6v-1.2h1.6v-2.3l1.4-0.4v2.7h2.3v1.2h-2.3v5.3
			c0,0.7,0.1,1.1,0.3,1.4s0.6,0.4,1.1,0.4c0.4,0,0.7-0.1,1-0.3V378.5z"/>
		<path d="M375,374.3h-6.5c0,1.1,0.3,1.9,0.9,2.4c0.5,0.6,1.3,0.8,2.2,0.8c1.1,0,2-0.3,2.9-1v1.3c-0.8,0.6-1.9,0.9-3.2,0.9
			c-1.3,0-2.3-0.4-3.1-1.3c-0.7-0.9-1.1-2-1.1-3.5c0-1.4,0.4-2.6,1.2-3.5s1.8-1.4,3-1.4s2.1,0.4,2.8,1.2c0.7,0.8,1,1.9,1,3.2V374.3z
			 M373.5,373.1c0-0.9-0.2-1.5-0.6-2s-1-0.7-1.7-0.7c-0.7,0-1.3,0.3-1.8,0.8c-0.5,0.5-0.8,1.2-0.9,2H373.5z"/>
		<path d="M382,370.8c-0.3-0.2-0.6-0.3-1.1-0.3c-0.6,0-1.2,0.3-1.6,0.9s-0.6,1.4-0.6,2.5v4.7h-1.4v-9.2h1.4v1.9h0
			c0.2-0.7,0.5-1.2,1-1.5s0.9-0.5,1.4-0.5c0.4,0,0.7,0,0.9,0.1V370.8z"/>
		<path d="M388.3,370.8c-0.3-0.2-0.6-0.3-1.1-0.3c-0.6,0-1.2,0.3-1.6,0.9s-0.6,1.4-0.6,2.5v4.7h-1.4v-9.2h1.4v1.9h0
			c0.2-0.7,0.5-1.2,1-1.5s0.9-0.5,1.4-0.5c0.4,0,0.7,0,0.9,0.1V370.8z"/>
		<path d="M397.3,378.6h-1.4v-1.5h0c-0.6,1.1-1.6,1.7-2.8,1.7c-2.2,0-3.3-1.3-3.3-3.9v-5.5h1.4v5.3c0,2,0.8,3,2.3,3
			c0.7,0,1.3-0.3,1.8-0.8c0.5-0.5,0.7-1.3,0.7-2.1v-5.3h1.4V378.6z"/>
		<path d="M401.7,377.2v5.6h-1.4v-13.5h1.4v1.6h0c0.7-1.2,1.8-1.8,3.2-1.8c1.2,0,2.1,0.4,2.8,1.2s1,1.9,1,3.3c0,1.6-0.4,2.8-1.1,3.7
			c-0.8,0.9-1.8,1.4-3.1,1.4C403.3,378.8,402.4,378.3,401.7,377.2L401.7,377.2z M401.7,374.8c0,0.8,0.3,1.4,0.8,2s1.2,0.8,1.9,0.8
			c0.9,0,1.6-0.3,2.1-1s0.8-1.7,0.8-2.9c0-1-0.2-1.8-0.7-2.4s-1.1-0.9-2-0.9c-0.8,0-1.5,0.3-2.1,0.9s-0.8,1.4-0.8,2.3V374.8z"/>
		<path d="M415.3,378.5c-0.4,0.2-0.8,0.3-1.3,0.3c-1.6,0-2.4-0.9-2.4-2.7v-5.6H410v-1.2h1.6v-2.3l1.4-0.4v2.7h2.3v1.2H413v5.3
			c0,0.7,0.1,1.1,0.3,1.4s0.6,0.4,1.1,0.4c0.4,0,0.7-0.1,1-0.3V378.5z"/>
		<path d="M423.3,376.3c0.4,0.3,0.9,0.6,1.6,0.8c0.7,0.2,1.3,0.3,1.9,0.3c1.9,0,2.8-0.7,2.8-2c0-0.4-0.1-0.7-0.3-1
			c-0.2-0.3-0.5-0.6-0.8-0.8s-1-0.6-2-1.1c-1.2-0.6-2-1.2-2.5-1.7c-0.5-0.5-0.7-1.2-0.7-2c0-1.1,0.4-1.9,1.3-2.5
			c0.9-0.6,1.9-0.9,3.2-0.9c1.3,0,2.2,0.2,2.7,0.5v1.6c-0.8-0.5-1.7-0.8-2.9-0.8c-0.8,0-1.5,0.2-2,0.5c-0.5,0.4-0.8,0.8-0.8,1.5
			c0,0.6,0.2,1,0.5,1.4c0.4,0.4,1.1,0.8,2.3,1.4c1.3,0.7,2.3,1.3,2.7,1.9s0.7,1.2,0.7,1.9c0,1.1-0.4,2-1.2,2.6s-1.9,0.9-3.4,0.9
			c-0.5,0-1-0.1-1.7-0.2c-0.7-0.1-1.2-0.3-1.5-0.5V376.3z"/>
		<path d="M440.7,374.3h-6.5c0,1.1,0.3,1.9,0.9,2.4c0.5,0.6,1.3,0.8,2.2,0.8c1.1,0,2-0.3,2.9-1v1.3c-0.8,0.6-1.9,0.9-3.2,0.9
			c-1.3,0-2.3-0.4-3.1-1.3c-0.7-0.9-1.1-2-1.1-3.5c0-1.4,0.4-2.6,1.2-3.5s1.8-1.4,3-1.4s2.1,0.4,2.8,1.2c0.7,0.8,1,1.9,1,3.2V374.3z
			 M439.3,373.1c0-0.9-0.2-1.5-0.6-2c-0.4-0.5-1-0.7-1.7-0.7c-0.7,0-1.3,0.3-1.8,0.8c-0.5,0.5-0.8,1.2-0.9,2H439.3z"/>
		<path d="M447.7,370.8c-0.3-0.2-0.6-0.3-1.1-0.3c-0.6,0-1.2,0.3-1.6,0.9s-0.6,1.4-0.6,2.5v4.7H443v-9.2h1.4v1.9h0
			c0.2-0.7,0.5-1.2,1-1.5c0.4-0.4,0.9-0.5,1.4-0.5c0.4,0,0.7,0,0.9,0.1V370.8z"/>
		<path d="M457.2,369.3l-3.7,9.2h-1.3l-3.5-9.2h1.5l2.4,6.8c0.2,0.5,0.3,0.9,0.3,1.3h0c0.1-0.5,0.2-0.9,0.3-1.2l2.5-6.8H457.2z"/>
		<path d="M458.6,366c0-0.3,0.1-0.5,0.3-0.7s0.4-0.3,0.6-0.3c0.3,0,0.5,0.1,0.7,0.3c0.2,0.2,0.3,0.4,0.3,0.7c0,0.3-0.1,0.5-0.3,0.7
			c-0.2,0.2-0.4,0.3-0.7,0.3c-0.3,0-0.5-0.1-0.6-0.3C458.7,366.5,458.6,366.3,458.6,366z M458.8,378.6v-9.2h1.4v9.2H458.8z"/>
		<path d="M469.5,378.1c-0.7,0.4-1.6,0.7-2.5,0.7c-1.3,0-2.3-0.4-3.2-1.3s-1.2-2-1.2-3.4c0-1.5,0.4-2.8,1.3-3.7s2-1.4,3.5-1.4
			c0.8,0,1.5,0.1,2.1,0.4v1.5c-0.7-0.5-1.4-0.7-2.2-0.7c-0.9,0-1.7,0.3-2.3,1c-0.6,0.7-0.9,1.6-0.9,2.7c0,1.1,0.3,1.9,0.8,2.6
			s1.3,1,2.3,1c0.8,0,1.6-0.3,2.3-0.8V378.1z"/>
		<path d="M479.1,374.3h-6.5c0,1.1,0.3,1.9,0.9,2.4c0.5,0.6,1.3,0.8,2.2,0.8c1.1,0,2-0.3,2.9-1v1.3c-0.8,0.6-1.9,0.9-3.2,0.9
			c-1.3,0-2.3-0.4-3.1-1.3c-0.7-0.9-1.1-2-1.1-3.5c0-1.4,0.4-2.6,1.2-3.5s1.8-1.4,3-1.4s2.1,0.4,2.8,1.2c0.7,0.8,1,1.9,1,3.2V374.3z
			 M477.6,373.1c0-0.9-0.2-1.5-0.6-2c-0.4-0.5-1-0.7-1.7-0.7c-0.7,0-1.3,0.3-1.8,0.8c-0.5,0.5-0.8,1.2-0.9,2H477.6z"/>
		<path d="M497,378.6h-1.7l-2.2-3.6c-0.5-0.8-0.9-1.3-1.2-1.5s-0.8-0.4-1.3-0.4h-1.3v5.5h-1.4v-12.9h3.8c1.2,0,2.1,0.3,2.8,0.9
			s1.1,1.5,1.1,2.5c0,1.8-1,2.9-2.9,3.5v0c0.4,0.2,0.7,0.4,0.9,0.6c0.2,0.3,0.6,0.7,1,1.5L497,378.6z M489.3,367v4.8h2.1
			c0.8,0,1.4-0.2,1.9-0.7c0.5-0.5,0.7-1.1,0.7-1.8c0-0.7-0.2-1.3-0.7-1.6s-1.1-0.6-2-0.6H489.3z"/>
		<path d="M497.4,374.1c0-1.5,0.4-2.7,1.3-3.6c0.8-0.9,2-1.3,3.4-1.3c1.3,0,2.4,0.4,3.2,1.3c0.8,0.8,1.2,2,1.2,3.5
			c0,1.5-0.4,2.6-1.3,3.5c-0.8,0.9-1.9,1.3-3.3,1.3c-1.3,0-2.4-0.4-3.2-1.3S497.4,375.5,497.4,374.1z M498.8,374
			c0,1.1,0.3,2,0.9,2.6c0.6,0.7,1.3,1,2.3,1c1,0,1.7-0.3,2.3-0.9c0.5-0.6,0.8-1.5,0.8-2.7c0-1.2-0.3-2.1-0.8-2.7
			c-0.5-0.6-1.3-1-2.3-1c-1,0-1.7,0.3-2.3,1S498.8,372.9,498.8,374z"/>
		<path d="M516.2,378.6h-1.4v-1.5h0c-0.6,1.1-1.6,1.7-2.8,1.7c-2.2,0-3.3-1.3-3.3-3.9v-5.5h1.4v5.3c0,2,0.8,3,2.3,3
			c0.7,0,1.3-0.3,1.8-0.8c0.5-0.5,0.7-1.3,0.7-2.1v-5.3h1.4V378.6z"/>
		<path d="M523.4,378.5c-0.4,0.2-0.8,0.3-1.3,0.3c-1.6,0-2.4-0.9-2.4-2.7v-5.6h-1.6v-1.2h1.6v-2.3l1.4-0.4v2.7h2.3v1.2h-2.3v5.3
			c0,0.7,0.1,1.1,0.3,1.4s0.6,0.4,1.1,0.4c0.4,0,0.7-0.1,1-0.3V378.5z"/>
		<path d="M525.3,366c0-0.3,0.1-0.5,0.3-0.7s0.4-0.3,0.6-0.3c0.3,0,0.5,0.1,0.7,0.3c0.2,0.2,0.3,0.4,0.3,0.7c0,0.3-0.1,0.5-0.3,0.7
			c-0.2,0.2-0.4,0.3-0.7,0.3c-0.3,0-0.5-0.1-0.6-0.3C525.3,366.5,525.3,366.3,525.3,366z M525.5,378.6v-9.2h1.4v9.2H525.5z"/>
		<path d="M537.5,378.6h-1.4v-5.3c0-2-0.7-3-2.2-3c-0.8,0-1.4,0.3-1.9,0.8c-0.5,0.6-0.7,1.3-0.7,2.2v5.3h-1.4v-9.2h1.4v1.5h0
			c0.7-1.2,1.7-1.8,3-1.8c1,0,1.8,0.3,2.3,1c0.5,0.7,0.8,1.6,0.8,2.8V378.6z"/>
		<path d="M547.7,374.3h-6.5c0,1.1,0.3,1.9,0.9,2.4c0.5,0.6,1.3,0.8,2.2,0.8c1.1,0,2-0.3,2.9-1v1.3c-0.8,0.6-1.9,0.9-3.2,0.9
			c-1.3,0-2.3-0.4-3.1-1.3c-0.7-0.9-1.1-2-1.1-3.5c0-1.4,0.4-2.6,1.2-3.5s1.8-1.4,3-1.4s2.1,0.4,2.8,1.2c0.7,0.8,1,1.9,1,3.2V374.3z
			 M546.2,373.1c0-0.9-0.2-1.5-0.6-2c-0.4-0.5-1-0.7-1.7-0.7c-0.7,0-1.3,0.3-1.8,0.8c-0.5,0.5-0.8,1.2-0.9,2H546.2z"/>
	</g>
</g>
<g>
	<defs>
		<rect id="SVGID_59_" x="-56" y="-6" width="960" height="540"/>
	</defs>
	<clipPath id="SVGID_60_">
		<use xlink:href="#SVGID_59_"  style="overflow:visible;"/>
	</clipPath>
	<g class="st30">
		<path d="M517.9,422.3c1.9,0,3.6,0.7,4.9,2c1.3,1.3,2,3,2,5c0,2-0.7,3.6-2,5s-3,2-4.9,2c-2,0-3.6-0.7-5-2s-2-3-2-5c0-2,0.7-3.6,2-5
			C514.3,423,516,422.3,517.9,422.3z M517.9,435.7c1.8,0,3.3-0.6,4.5-1.9c1.2-1.2,1.8-2.7,1.8-4.5c0-1.8-0.6-3.3-1.8-4.6
			c-1.2-1.2-2.7-1.8-4.5-1.8c-1.8,0-3.3,0.6-4.5,1.8c-1.2,1.2-1.8,2.7-1.8,4.6c0,1.8,0.6,3.3,1.8,4.6S516.1,435.7,517.9,435.7z
			 M519.1,431.3v2.1h-1v-2.1h-4v-0.8l4-5.5h1v5.4h1.1v0.9H519.1z M518.1,427c0-0.4,0-0.6,0-0.7c-0.1,0.3-0.3,0.5-0.4,0.7l-2.5,3.4
			h2.8V427z"/>
	</g>
</g>
<g>
	<defs>
		<rect id="SVGID_61_" x="-56" y="-6" width="960" height="540"/>
	</defs>
	<clipPath id="SVGID_62_">
		<use xlink:href="#SVGID_61_"  style="overflow:visible;"/>
	</clipPath>
	<g class="st31">
		<path d="M534.3,433.9H533v-11.5h1.3V433.9z"/>
		<path d="M536.8,431.9c0.4,0.3,0.8,0.6,1.4,0.7c0.6,0.2,1.1,0.3,1.6,0.3c1.7,0,2.5-0.6,2.5-1.8c0-0.3-0.1-0.7-0.3-0.9
			c-0.2-0.3-0.4-0.5-0.7-0.7c-0.3-0.2-0.9-0.5-1.8-1c-1.1-0.6-1.8-1.1-2.2-1.5s-0.6-1-0.6-1.8c0-0.9,0.4-1.7,1.1-2.2
			c0.8-0.5,1.7-0.8,2.8-0.8c1.1,0,1.9,0.1,2.4,0.4v1.5c-0.7-0.5-1.5-0.7-2.6-0.7c-0.7,0-1.3,0.2-1.8,0.5s-0.7,0.7-0.7,1.3
			c0,0.5,0.2,0.9,0.5,1.2c0.3,0.3,1,0.7,2,1.2c1.2,0.6,2,1.2,2.4,1.7c0.4,0.5,0.6,1.1,0.6,1.7c0,1-0.4,1.8-1.1,2.3
			c-0.7,0.5-1.7,0.8-3,0.8c-0.4,0-0.9-0.1-1.5-0.2s-1-0.3-1.3-0.5V431.9z"/>
		<path d="M554.1,433.9h-1.5l-1.9-3.2c-0.4-0.7-0.8-1.1-1.1-1.4c-0.3-0.2-0.7-0.3-1.2-0.3h-1.1v4.9H546v-11.5h3.4
			c1.1,0,1.9,0.3,2.5,0.8c0.6,0.5,0.9,1.3,0.9,2.2c0,1.6-0.8,2.6-2.5,3.1v0c0.3,0.1,0.6,0.3,0.8,0.6c0.2,0.2,0.5,0.7,0.9,1.3
			L554.1,433.9z M547.3,423.6v4.2h1.9c0.7,0,1.3-0.2,1.7-0.6c0.4-0.4,0.7-1,0.7-1.6c0-0.6-0.2-1.1-0.6-1.5c-0.4-0.3-1-0.5-1.7-0.5
			H547.3z"/>
	</g>
</g>
<g>
	<defs>
		<rect id="SVGID_63_" x="-56" y="-6" width="960" height="540"/>
	</defs>
	<clipPath id="SVGID_64_">
		<use xlink:href="#SVGID_63_"  style="overflow:visible;"/>
	</clipPath>
	<g class="st32">
		<path d="M566.2,428.5c-1.1,0-2.1-0.4-2.8-1.1c-0.8-0.7-1.1-1.6-1.1-2.8c0-1.1,0.4-2.1,1.1-2.8c0.8-0.7,1.7-1.1,2.8-1.1
			c1.1,0,2.1,0.4,2.8,1.1c0.7,0.7,1.1,1.6,1.1,2.8c0,1.1-0.4,2-1.1,2.8C568.2,428.1,567.3,428.5,566.2,428.5z M566.2,421.9
			c-0.8,0-1.5,0.3-2,0.8c-0.5,0.5-0.8,1.2-0.8,2s0.3,1.5,0.8,2c0.5,0.5,1.2,0.8,2,0.8c0.8,0,1.5-0.3,2-0.8c0.5-0.5,0.8-1.2,0.8-2
			s-0.3-1.5-0.8-2C567.7,422.2,567,421.9,566.2,421.9z M564.1,434.7v-4.9h1.2v3.8h8.7v1.1H564.1z M572.4,431.3v-11h1.2v11H572.4z"/>
		<path d="M591,432.8h-14v-1h14V432.8z M584,424.2c-0.4,0.8-1.1,1.6-2.2,2.4s-2.2,1.4-3.4,1.7l-0.8-0.9c1.8-0.4,3.2-1.1,4.2-2.1
			c1-1,1.6-2,1.6-3v-0.8h1.2v0.8c0,0.9,0.5,1.9,1.6,2.9c1.1,1,2.5,1.7,4.2,2.1l-0.8,0.9c-1.2-0.4-2.4-1-3.4-1.8S584.4,425,584,424.2
			z"/>
		<path d="M593,433v-1h14v1H593z M604.8,422.8h-8.4v2.2h8v1h-8v2.1h8.6v1h-9.8v-7.3h9.5V422.8z"/>
		<path d="M618.3,428.2c-0.7,0.1-1.6,0.2-2.5,0.2s-2.7,0.1-5.4,0.1v-4.4h5.3V422h-5.3v-1h6.4v4.1h-5.3v2.3h1.9
			c2.2,0,3.7-0.1,4.7-0.3L618.3,428.2z M620.3,435.3v-4.4h-8.6v-1h9.8v5.4H620.3z M620.3,429v-3.9h-2.6v-1h2.6v-3.8h1.2v8.8H620.3z"
			/>
		<path d="M633.1,428.8c-0.7-0.5-1.4-1-2.1-1.8s-1.1-1.4-1.4-2c-0.3,0.7-0.8,1.5-1.5,2.3s-1.4,1.4-2.1,1.8l-0.8-0.8
			c1.1-0.5,2-1.3,2.7-2.4c0.7-1.1,1.1-2.1,1.1-3.2v-1.9h1.1v1.9c0,1,0.4,2,1.2,3s1.6,1.7,2.6,2.2L633.1,428.8z M628,434.8v-4.8h1.2
			v3.8h8.5v1H628z M633.2,426.3v-1h2.9v-1.7h-2.9v-1h2.9v-2.3h1.2v11h-1.2v-5H633.2z"/>
	</g>
</g>
<g>
	<defs>
		<rect id="SVGID_65_" x="-56" y="-6" width="960" height="540"/>
	</defs>
	<clipPath id="SVGID_66_">
		<use xlink:href="#SVGID_65_"  style="overflow:visible;"/>
	</clipPath>
	<g class="st33">
		<path d="M654.2,429.3v6H653v-6h-6.4v-1h14v1H654.2z M659.3,426.5c-1.2-0.2-2.4-0.6-3.5-1.3c-1.1-0.7-1.8-1.3-2.2-1.9
			c-0.4,0.6-1.1,1.3-2.2,2s-2.3,1.1-3.5,1.3l-0.7-1c1.5-0.2,2.9-0.7,4.1-1.5c1.2-0.8,1.7-1.7,1.7-2.7v-0.7h1.2v0.7
			c0,1,0.6,1.9,1.7,2.7c1.1,0.8,2.5,1.3,4.1,1.4L659.3,426.5z"/>
		<path d="M662.7,423.3v-1h3.3v-1.8h1.2v1.8h3.3v1H662.7z M666.6,428.9c-1,0-1.8-0.2-2.4-0.7c-0.6-0.5-0.9-1.1-0.9-1.8
			c0-0.7,0.3-1.3,0.9-1.8s1.4-0.7,2.4-0.7s1.8,0.2,2.4,0.7s0.9,1.1,0.9,1.8c0,0.7-0.3,1.3-0.9,1.8
			C668.4,428.7,667.6,428.9,666.6,428.9z M666.6,424.9c-0.6,0-1.1,0.1-1.5,0.4s-0.6,0.7-0.6,1.1c0,0.4,0.2,0.8,0.6,1.1
			c0.4,0.3,0.9,0.4,1.5,0.4c0.6,0,1.1-0.1,1.6-0.4c0.4-0.3,0.6-0.7,0.6-1.1c0-0.5-0.2-0.8-0.6-1.1S667.3,424.9,666.6,424.9z
			 M670.4,435.2c-1.6,0-2.9-0.2-3.8-0.7c-0.9-0.5-1.3-1.1-1.3-2c0-0.9,0.4-1.5,1.3-2c0.9-0.5,2.1-0.7,3.8-0.7s2.9,0.2,3.8,0.7
			c0.9,0.5,1.3,1.1,1.3,2c0,0.8-0.4,1.5-1.3,2C673.3,435,672.1,435.2,670.4,435.2z M670.4,430.8c-2.5,0-3.8,0.6-3.8,1.7
			s1.3,1.7,3.8,1.7c2.6,0,3.8-0.6,3.8-1.7S673,430.8,670.4,430.8z M674.3,429.5v-3.6h-1.8v3.2h-1.2v-8.5h1.2v4.2h1.8v-4.6h1.2v9.2
			H674.3z"/>
	</g>
</g>
<g>
	<defs>
		<rect id="SVGID_67_" x="-56" y="-6" width="960" height="540"/>
	</defs>
	<clipPath id="SVGID_68_">
		<use xlink:href="#SVGID_67_"  style="overflow:visible;"/>
	</clipPath>
	<g class="st34">
		<path d="M205.1,461.2c1.9,0,3.6,0.7,4.9,2c1.4,1.3,2,3,2,5c0,2-0.7,3.6-2,5c-1.3,1.3-3,2-5,2c-2,0-3.6-0.7-5-2c-1.3-1.3-2-3-2-5
			c0-2,0.7-3.6,2-5C201.6,461.9,203.2,461.2,205.1,461.2z M205.1,474.6c1.8,0,3.3-0.6,4.6-1.9c1.2-1.2,1.8-2.8,1.8-4.6
			c0-1.8-0.6-3.3-1.8-4.6c-1.2-1.2-2.7-1.8-4.5-1.8c-1.8,0-3.3,0.6-4.5,1.8c-1.2,1.2-1.8,2.8-1.8,4.6c0,1.8,0.6,3.3,1.8,4.6
			C201.8,474,203.3,474.6,205.1,474.6z M202.7,472.1v-1.1c0.7,0.3,1.3,0.5,1.8,0.5c0.6,0,1.1-0.2,1.5-0.5c0.4-0.3,0.5-0.7,0.5-1.3
			c0-1.2-0.7-1.8-2.2-1.8c-0.3,0-0.8,0-1.4,0.1v-4.3h4.3v0.9h-3.4v2.4c0.2,0,0.5,0,0.8,0c1,0,1.7,0.2,2.2,0.7s0.8,1.1,0.8,1.9
			c0,0.8-0.3,1.5-0.8,2c-0.5,0.5-1.3,0.8-2.3,0.8C203.9,472.5,203.3,472.4,202.7,472.1z"/>
	</g>
</g>
<g>
	<defs>
		<rect id="SVGID_69_" x="-56" y="-6" width="960" height="540"/>
	</defs>
	<clipPath id="SVGID_70_">
		<use xlink:href="#SVGID_69_"  style="overflow:visible;"/>
	</clipPath>
	<g class="st35">
		<path d="M219.8,471.8v-1h14v1H219.8z M229.9,466.7h2.5v1h-11.4v-1h2.5l-0.2-4.2h1.1l0.2,4.2h4l0.2-4.2h1.1L229.9,466.7z
			 M221.2,460.6h11v1h-11V460.6z"/>
		<path d="M237.8,463.7h8.5v-2.2h-8.5v-1h9.7v4.3H239v2.5h8.9v1h-4.7v2.7h6.4v1h-14v-1h6.4v-2.7h-4.3V463.7z"/>
		<path d="M258.5,470.7c-1.3-1.3-2.3-2.9-2.8-4.7c-0.2,0.7-0.6,1.6-1.1,2.5c-0.6,0.9-1.2,1.7-1.9,2.4l-0.9-0.7
			c0.9-0.6,1.7-1.6,2.3-3c0.7-1.4,1-2.7,1-4v-3h1.2v3c0,1.3,0.3,2.5,0.9,3.7c0.6,1.2,1.3,2.2,2.2,2.9L258.5,470.7z M260.6,473.8
			v-8.4h-2.6v-1h2.6v-4.9h1.1v14.3H260.6z M263.3,474.2v-15.1h1.2v15.1H263.3z"/>
		<path d="M281.7,471.7h-14v-1h14V471.7z M274.7,463.1c-0.4,0.8-1.1,1.6-2.2,2.4c-1.1,0.8-2.2,1.4-3.4,1.7l-0.8-0.9
			c1.8-0.4,3.2-1.1,4.2-2.1c1-1.1,1.6-2,1.6-3v-0.8h1.2v0.8c0,0.9,0.5,1.9,1.6,3s2.5,1.7,4.2,2.1l-0.8,0.9c-1.2-0.4-2.4-1-3.4-1.8
			C275.8,464.7,275.1,463.9,274.7,463.1z"/>
	</g>
</g>
<g>
	<defs>
		<rect id="SVGID_71_" x="-56" y="-6" width="960" height="540"/>
	</defs>
	<clipPath id="SVGID_72_">
		<use xlink:href="#SVGID_71_"  style="overflow:visible;"/>
	</clipPath>
	<g class="st36">
		<path d="M296.9,468.2v6h-1.2v-6h-6.4v-1h14v1H296.9z M302.1,465.3c-1.2-0.2-2.4-0.6-3.5-1.3s-1.8-1.3-2.2-1.9
			c-0.4,0.6-1.1,1.3-2.2,2s-2.3,1.1-3.5,1.3l-0.7-1c1.5-0.2,2.9-0.7,4.1-1.5c1.2-0.8,1.8-1.7,1.8-2.7v-0.7h1.2v0.7
			c0,1,0.6,1.9,1.7,2.7s2.5,1.3,4.1,1.4L302.1,465.3z"/>
		<path d="M305.5,462.1v-1h3.3v-1.8h1.2v1.8h3.3v1H305.5z M309.4,467.8c-1,0-1.8-0.2-2.4-0.7c-0.6-0.5-0.9-1.1-0.9-1.8
			c0-0.7,0.3-1.3,0.9-1.8c0.6-0.5,1.4-0.7,2.4-0.7c1,0,1.8,0.2,2.4,0.7c0.6,0.5,0.9,1.1,0.9,1.8c0,0.7-0.3,1.3-0.9,1.8
			C311.2,467.6,310.4,467.8,309.4,467.8z M309.4,463.8c-0.6,0-1.1,0.1-1.5,0.4c-0.4,0.3-0.6,0.7-0.6,1.1c0,0.4,0.2,0.8,0.6,1.1
			c0.4,0.3,0.9,0.4,1.5,0.4c0.6,0,1.1-0.1,1.6-0.4c0.4-0.3,0.6-0.7,0.6-1.1c0-0.5-0.2-0.8-0.6-1.1
			C310.5,463.9,310,463.8,309.4,463.8z M313.2,474.1c-1.6,0-2.9-0.2-3.8-0.7c-0.9-0.5-1.3-1.1-1.3-2c0-0.9,0.4-1.5,1.3-2
			c0.9-0.5,2.1-0.7,3.8-0.7c1.6,0,2.9,0.2,3.8,0.7c0.9,0.5,1.3,1.1,1.3,2c0,0.8-0.4,1.5-1.3,2C316.1,473.9,314.9,474.1,313.2,474.1z
			 M313.2,469.7c-2.5,0-3.8,0.6-3.8,1.7c0,1.1,1.3,1.7,3.8,1.7c2.6,0,3.8-0.6,3.8-1.7C317,470.3,315.8,469.7,313.2,469.7z
			 M317,468.4v-3.6h-1.8v3.2h-1.2v-8.5h1.2v4.3h1.8v-4.6h1.2v9.2H317z"/>
	</g>
</g>
<g>
	<defs>
		<rect id="SVGID_73_" x="-56" y="-6" width="960" height="540"/>
	</defs>
	<clipPath id="SVGID_74_">
		<use xlink:href="#SVGID_73_"  style="overflow:visible;"/>
	</clipPath>
	<g class="st37">
		<path d="M334,470.6c-0.7-0.6-1.3-1.4-1.8-2.2c-0.5-0.9-0.9-1.6-1-2.2c-0.1,0.7-0.5,1.5-1.1,2.4c-0.6,0.9-1.2,1.7-1.9,2.3l-0.9-0.7
			c0.9-0.7,1.7-1.6,2.4-2.9c0.7-1.3,1-2.5,1-3.8v-1.9h-2.8v-1h6.8v1h-2.8v1.9c0,1.2,0.3,2.5,0.9,3.7c0.6,1.2,1.3,2.1,2.2,2.7
			L334,470.6z M338.7,474.2v-7.3h-1.8v6.9h-1.2v-14.3h1.2v6.4h1.8v-6.7h1.2v15.1H338.7z"/>
		<path d="M349.7,460.5c-0.2,4.2-2,7.6-5.7,10.1l-0.9-0.8c1.4-0.7,2.6-1.9,3.6-3.4c1-1.6,1.6-3.2,1.7-4.9H344v-1H349.7z
			 M354.6,474.2v-7.5h-1.9v7h-1.1v-14.3h1.1v6.2h1.9v-6.5h1.2v15.1H354.6z"/>
	</g>
</g>
<path d="M130.5,249.8l-2.9-7.1l7.4,1.9L130.5,249.8z M387.8,470L131.1,247.3l1.5-1.7l256.7,222.7L387.8,470z"/>
<line class="st1" x1="401.9" y1="412.3" x2="491.4" y2="412.3"/>
<line class="st1" x1="401.9" y1="423.7" x2="491.4" y2="423.7"/>
<line class="st1" x1="401.9" y1="435.1" x2="491.4" y2="435.1"/>
<line class="st1" x1="401.9" y1="446.3" x2="491.4" y2="446.3"/>
<line class="st1" x1="402.7" y1="457.7" x2="492.3" y2="457.7"/>
<line class="st1" x1="401.9" y1="469.1" x2="491.4" y2="469.1"/>
</svg>
